G04 #@! TF.GenerationSoftware,KiCad,Pcbnew,(5.1.5-0)*
G04 #@! TF.CreationDate,2021-03-10T11:50:08+01:00*
G04 #@! TF.ProjectId,Apple1Cartridge,4170706c-6531-4436-9172-747269646765,rev?*
G04 #@! TF.SameCoordinates,Original*
G04 #@! TF.FileFunction,Legend,Top*
G04 #@! TF.FilePolarity,Positive*
%FSLAX46Y46*%
G04 Gerber Fmt 4.6, Leading zero omitted, Abs format (unit mm)*
G04 Created by KiCad (PCBNEW (5.1.5-0)) date 2021-03-10 11:50:08*
%MOMM*%
%LPD*%
G04 APERTURE LIST*
%ADD10C,0.150000*%
%ADD11C,0.300000*%
%ADD12C,0.120000*%
G04 APERTURE END LIST*
D10*
X115496743Y-80825600D02*
X115163410Y-80349410D01*
X114925315Y-80825600D02*
X114925315Y-79825600D01*
X115306267Y-79825600D01*
X115401505Y-79873220D01*
X115449124Y-79920839D01*
X115496743Y-80016077D01*
X115496743Y-80158934D01*
X115449124Y-80254172D01*
X115401505Y-80301791D01*
X115306267Y-80349410D01*
X114925315Y-80349410D01*
X115877696Y-80539886D02*
X116353886Y-80539886D01*
X115782458Y-80825600D02*
X116115791Y-79825600D01*
X116449124Y-80825600D01*
X116782458Y-80825600D02*
X116782458Y-79825600D01*
X117115791Y-80539886D01*
X117449124Y-79825600D01*
X117449124Y-80825600D01*
X110291025Y-80845920D02*
X109957692Y-80369730D01*
X109719597Y-80845920D02*
X109719597Y-79845920D01*
X110100549Y-79845920D01*
X110195787Y-79893540D01*
X110243406Y-79941159D01*
X110291025Y-80036397D01*
X110291025Y-80179254D01*
X110243406Y-80274492D01*
X110195787Y-80322111D01*
X110100549Y-80369730D01*
X109719597Y-80369730D01*
X110910073Y-79845920D02*
X111100549Y-79845920D01*
X111195787Y-79893540D01*
X111291025Y-79988778D01*
X111338644Y-80179254D01*
X111338644Y-80512587D01*
X111291025Y-80703063D01*
X111195787Y-80798301D01*
X111100549Y-80845920D01*
X110910073Y-80845920D01*
X110814835Y-80798301D01*
X110719597Y-80703063D01*
X110671978Y-80512587D01*
X110671978Y-80179254D01*
X110719597Y-79988778D01*
X110814835Y-79893540D01*
X110910073Y-79845920D01*
X111767216Y-80845920D02*
X111767216Y-79845920D01*
X112100549Y-80560206D01*
X112433882Y-79845920D01*
X112433882Y-80845920D01*
D11*
X95522997Y-66925000D02*
X96237282Y-66925000D01*
X95380140Y-67353571D02*
X95880140Y-65853571D01*
X96380140Y-67353571D01*
X96880140Y-67353571D02*
X96880140Y-65853571D01*
X97451568Y-65853571D01*
X97594425Y-65925000D01*
X97665854Y-65996428D01*
X97737282Y-66139285D01*
X97737282Y-66353571D01*
X97665854Y-66496428D01*
X97594425Y-66567857D01*
X97451568Y-66639285D01*
X96880140Y-66639285D01*
X98380140Y-67353571D02*
X98380140Y-65853571D01*
X98951568Y-65853571D01*
X99094425Y-65925000D01*
X99165854Y-65996428D01*
X99237282Y-66139285D01*
X99237282Y-66353571D01*
X99165854Y-66496428D01*
X99094425Y-66567857D01*
X98951568Y-66639285D01*
X98380140Y-66639285D01*
X100594425Y-67353571D02*
X99880140Y-67353571D01*
X99880140Y-65853571D01*
X101094425Y-66567857D02*
X101594425Y-66567857D01*
X101808711Y-67353571D02*
X101094425Y-67353571D01*
X101094425Y-65853571D01*
X101808711Y-65853571D01*
X102451568Y-66782142D02*
X103594425Y-66782142D01*
X105094425Y-67353571D02*
X104237282Y-67353571D01*
X104665854Y-67353571D02*
X104665854Y-65853571D01*
X104522997Y-66067857D01*
X104380140Y-66210714D01*
X104237282Y-66282142D01*
X107737282Y-67353571D02*
X107237282Y-66639285D01*
X106880140Y-67353571D02*
X106880140Y-65853571D01*
X107451568Y-65853571D01*
X107594425Y-65925000D01*
X107665854Y-65996428D01*
X107737282Y-66139285D01*
X107737282Y-66353571D01*
X107665854Y-66496428D01*
X107594425Y-66567857D01*
X107451568Y-66639285D01*
X106880140Y-66639285D01*
X108308711Y-66925000D02*
X109022997Y-66925000D01*
X108165854Y-67353571D02*
X108665854Y-65853571D01*
X109165854Y-67353571D01*
X109665854Y-67353571D02*
X109665854Y-65853571D01*
X110165854Y-66925000D01*
X110665854Y-65853571D01*
X110665854Y-67353571D01*
X112451568Y-65782142D02*
X111165854Y-67710714D01*
X113808711Y-67353571D02*
X113308711Y-66639285D01*
X112951568Y-67353571D02*
X112951568Y-65853571D01*
X113522997Y-65853571D01*
X113665854Y-65925000D01*
X113737282Y-65996428D01*
X113808711Y-66139285D01*
X113808711Y-66353571D01*
X113737282Y-66496428D01*
X113665854Y-66567857D01*
X113522997Y-66639285D01*
X112951568Y-66639285D01*
X114737282Y-65853571D02*
X115022997Y-65853571D01*
X115165854Y-65925000D01*
X115308711Y-66067857D01*
X115380140Y-66353571D01*
X115380140Y-66853571D01*
X115308711Y-67139285D01*
X115165854Y-67282142D01*
X115022997Y-67353571D01*
X114737282Y-67353571D01*
X114594425Y-67282142D01*
X114451568Y-67139285D01*
X114380140Y-66853571D01*
X114380140Y-66353571D01*
X114451568Y-66067857D01*
X114594425Y-65925000D01*
X114737282Y-65853571D01*
X116022997Y-67353571D02*
X116022997Y-65853571D01*
X116522997Y-66925000D01*
X117022997Y-65853571D01*
X117022997Y-67353571D01*
X119737282Y-67210714D02*
X119665854Y-67282142D01*
X119451568Y-67353571D01*
X119308711Y-67353571D01*
X119094425Y-67282142D01*
X118951568Y-67139285D01*
X118880140Y-66996428D01*
X118808711Y-66710714D01*
X118808711Y-66496428D01*
X118880140Y-66210714D01*
X118951568Y-66067857D01*
X119094425Y-65925000D01*
X119308711Y-65853571D01*
X119451568Y-65853571D01*
X119665854Y-65925000D01*
X119737282Y-65996428D01*
X120308711Y-66925000D02*
X121022997Y-66925000D01*
X120165854Y-67353571D02*
X120665854Y-65853571D01*
X121165854Y-67353571D01*
X122522997Y-67353571D02*
X122022997Y-66639285D01*
X121665854Y-67353571D02*
X121665854Y-65853571D01*
X122237282Y-65853571D01*
X122380140Y-65925000D01*
X122451568Y-65996428D01*
X122522997Y-66139285D01*
X122522997Y-66353571D01*
X122451568Y-66496428D01*
X122380140Y-66567857D01*
X122237282Y-66639285D01*
X121665854Y-66639285D01*
X122951568Y-65853571D02*
X123808711Y-65853571D01*
X123380140Y-67353571D02*
X123380140Y-65853571D01*
X125165854Y-67353571D02*
X124665854Y-66639285D01*
X124308711Y-67353571D02*
X124308711Y-65853571D01*
X124880140Y-65853571D01*
X125022997Y-65925000D01*
X125094425Y-65996428D01*
X125165854Y-66139285D01*
X125165854Y-66353571D01*
X125094425Y-66496428D01*
X125022997Y-66567857D01*
X124880140Y-66639285D01*
X124308711Y-66639285D01*
X125808711Y-67353571D02*
X125808711Y-65853571D01*
X126522997Y-67353571D02*
X126522997Y-65853571D01*
X126880140Y-65853571D01*
X127094425Y-65925000D01*
X127237282Y-66067857D01*
X127308711Y-66210714D01*
X127380140Y-66496428D01*
X127380140Y-66710714D01*
X127308711Y-66996428D01*
X127237282Y-67139285D01*
X127094425Y-67282142D01*
X126880140Y-67353571D01*
X126522997Y-67353571D01*
X128808711Y-65925000D02*
X128665854Y-65853571D01*
X128451568Y-65853571D01*
X128237282Y-65925000D01*
X128094425Y-66067857D01*
X128022997Y-66210714D01*
X127951568Y-66496428D01*
X127951568Y-66710714D01*
X128022997Y-66996428D01*
X128094425Y-67139285D01*
X128237282Y-67282142D01*
X128451568Y-67353571D01*
X128594425Y-67353571D01*
X128808711Y-67282142D01*
X128880140Y-67210714D01*
X128880140Y-66710714D01*
X128594425Y-66710714D01*
X129522997Y-66567857D02*
X130022997Y-66567857D01*
X130237282Y-67353571D02*
X129522997Y-67353571D01*
X129522997Y-65853571D01*
X130237282Y-65853571D01*
D12*
X152977540Y-73712260D02*
X152977540Y-78772260D01*
X188657540Y-73712260D02*
X152977540Y-73712260D01*
X188657540Y-85832260D02*
X188657540Y-73712260D01*
X152977540Y-85832260D02*
X188657540Y-85832260D01*
X152977540Y-80772260D02*
X152977540Y-85832260D01*
X152977540Y-78772260D02*
G75*
G02X152977540Y-80772260I0J-1000000D01*
G01*
X152985160Y-93093780D02*
X152985160Y-98553780D01*
X188665160Y-93093780D02*
X152985160Y-93093780D01*
X188665160Y-106013780D02*
X188665160Y-93093780D01*
X152985160Y-106013780D02*
X188665160Y-106013780D01*
X152985160Y-100553780D02*
X152985160Y-106013780D01*
X152985160Y-98553780D02*
G75*
G02X152985160Y-100553780I0J-1000000D01*
G01*
X152947060Y-113267680D02*
X152947060Y-118327680D01*
X188627060Y-113267680D02*
X152947060Y-113267680D01*
X188627060Y-125387680D02*
X188627060Y-113267680D01*
X152947060Y-125387680D02*
X188627060Y-125387680D01*
X152947060Y-120327680D02*
X152947060Y-125387680D01*
X152947060Y-118327680D02*
G75*
G02X152947060Y-120327680I0J-1000000D01*
G01*
X104971540Y-113840700D02*
X104971540Y-115090700D01*
X135571540Y-113840700D02*
X104971540Y-113840700D01*
X135571540Y-118340700D02*
X135571540Y-113840700D01*
X104971540Y-118340700D02*
X135571540Y-118340700D01*
X104971540Y-117090700D02*
X104971540Y-118340700D01*
X104971540Y-115090700D02*
G75*
G02X104971540Y-117090700I0J-1000000D01*
G01*
X106038340Y-86840500D02*
X106038340Y-88090500D01*
X123938340Y-86840500D02*
X106038340Y-86840500D01*
X123938340Y-91340500D02*
X123938340Y-86840500D01*
X106038340Y-91340500D02*
X123938340Y-91340500D01*
X106038340Y-90090500D02*
X106038340Y-91340500D01*
X106038340Y-88090500D02*
G75*
G02X106038340Y-90090500I0J-1000000D01*
G01*
X146868840Y-93348480D02*
X146868840Y-90608480D01*
X152108840Y-93348480D02*
X152108840Y-90608480D01*
X152108840Y-90608480D02*
X146868840Y-90608480D01*
X152108840Y-93348480D02*
X146868840Y-93348480D01*
X146835820Y-73488220D02*
X146835820Y-70748220D01*
X152075820Y-73488220D02*
X152075820Y-70748220D01*
X152075820Y-70748220D02*
X146835820Y-70748220D01*
X152075820Y-73488220D02*
X146835820Y-73488220D01*
X196591381Y-121003600D02*
X196591381Y-120603600D01*
X196791381Y-120803600D02*
X196391381Y-120803600D01*
X192440580Y-119978600D02*
X192440580Y-119238600D01*
X192480580Y-120145600D02*
X192480580Y-119071600D01*
X192520580Y-120272600D02*
X192520580Y-118944600D01*
X192560580Y-120376600D02*
X192560580Y-118840600D01*
X192600580Y-120467600D02*
X192600580Y-118749600D01*
X192640580Y-120548600D02*
X192640580Y-118668600D01*
X192680580Y-120621600D02*
X192680580Y-118595600D01*
X192720580Y-118768600D02*
X192720580Y-118528600D01*
X192720580Y-120688600D02*
X192720580Y-120448600D01*
X192760580Y-118768600D02*
X192760580Y-118466600D01*
X192760580Y-120750600D02*
X192760580Y-120448600D01*
X192800580Y-118768600D02*
X192800580Y-118408600D01*
X192800580Y-120808600D02*
X192800580Y-120448600D01*
X192840580Y-118768600D02*
X192840580Y-118354600D01*
X192840580Y-120862600D02*
X192840580Y-120448600D01*
X192880580Y-118768600D02*
X192880580Y-118304600D01*
X192880580Y-120912600D02*
X192880580Y-120448600D01*
X192920580Y-118768600D02*
X192920580Y-118257600D01*
X192920580Y-120959600D02*
X192920580Y-120448600D01*
X192960580Y-118768600D02*
X192960580Y-118212600D01*
X192960580Y-121004600D02*
X192960580Y-120448600D01*
X193000580Y-118768600D02*
X193000580Y-118170600D01*
X193000580Y-121046600D02*
X193000580Y-120448600D01*
X193040580Y-118768600D02*
X193040580Y-118130600D01*
X193040580Y-121086600D02*
X193040580Y-120448600D01*
X193080580Y-118768600D02*
X193080580Y-118092600D01*
X193080580Y-121124600D02*
X193080580Y-120448600D01*
X193120580Y-118768600D02*
X193120580Y-118056600D01*
X193120580Y-121160600D02*
X193120580Y-120448600D01*
X193160580Y-118768600D02*
X193160580Y-118021600D01*
X193160580Y-121195600D02*
X193160580Y-120448600D01*
X193200580Y-118768600D02*
X193200580Y-117989600D01*
X193200580Y-121227600D02*
X193200580Y-120448600D01*
X193240580Y-118768600D02*
X193240580Y-117958600D01*
X193240580Y-121258600D02*
X193240580Y-120448600D01*
X193280580Y-118768600D02*
X193280580Y-117928600D01*
X193280580Y-121288600D02*
X193280580Y-120448600D01*
X193320580Y-118768600D02*
X193320580Y-117900600D01*
X193320580Y-121316600D02*
X193320580Y-120448600D01*
X193360580Y-118768600D02*
X193360580Y-117873600D01*
X193360580Y-121343600D02*
X193360580Y-120448600D01*
X193400580Y-118768600D02*
X193400580Y-117848600D01*
X193400580Y-121368600D02*
X193400580Y-120448600D01*
X193440580Y-118768600D02*
X193440580Y-117823600D01*
X193440580Y-121393600D02*
X193440580Y-120448600D01*
X193480580Y-118768600D02*
X193480580Y-117800600D01*
X193480580Y-121416600D02*
X193480580Y-120448600D01*
X193520580Y-118768600D02*
X193520580Y-117778600D01*
X193520580Y-121438600D02*
X193520580Y-120448600D01*
X193560580Y-118768600D02*
X193560580Y-117757600D01*
X193560580Y-121459600D02*
X193560580Y-120448600D01*
X193600580Y-118768600D02*
X193600580Y-117738600D01*
X193600580Y-121478600D02*
X193600580Y-120448600D01*
X193640580Y-118768600D02*
X193640580Y-117719600D01*
X193640580Y-121497600D02*
X193640580Y-120448600D01*
X193680580Y-118768600D02*
X193680580Y-117701600D01*
X193680580Y-121515600D02*
X193680580Y-120448600D01*
X193720580Y-118768600D02*
X193720580Y-117684600D01*
X193720580Y-121532600D02*
X193720580Y-120448600D01*
X193760580Y-118768600D02*
X193760580Y-117668600D01*
X193760580Y-121548600D02*
X193760580Y-120448600D01*
X193800580Y-118768600D02*
X193800580Y-117654600D01*
X193800580Y-121562600D02*
X193800580Y-120448600D01*
X193841580Y-118768600D02*
X193841580Y-117640600D01*
X193841580Y-121576600D02*
X193841580Y-120448600D01*
X193881580Y-118768600D02*
X193881580Y-117626600D01*
X193881580Y-121590600D02*
X193881580Y-120448600D01*
X193921580Y-118768600D02*
X193921580Y-117614600D01*
X193921580Y-121602600D02*
X193921580Y-120448600D01*
X193961580Y-118768600D02*
X193961580Y-117603600D01*
X193961580Y-121613600D02*
X193961580Y-120448600D01*
X194001580Y-118768600D02*
X194001580Y-117592600D01*
X194001580Y-121624600D02*
X194001580Y-120448600D01*
X194041580Y-118768600D02*
X194041580Y-117583600D01*
X194041580Y-121633600D02*
X194041580Y-120448600D01*
X194081580Y-118768600D02*
X194081580Y-117574600D01*
X194081580Y-121642600D02*
X194081580Y-120448600D01*
X194121580Y-118768600D02*
X194121580Y-117566600D01*
X194121580Y-121650600D02*
X194121580Y-120448600D01*
X194161580Y-118768600D02*
X194161580Y-117558600D01*
X194161580Y-121658600D02*
X194161580Y-120448600D01*
X194201580Y-118768600D02*
X194201580Y-117552600D01*
X194201580Y-121664600D02*
X194201580Y-120448600D01*
X194241580Y-118768600D02*
X194241580Y-117546600D01*
X194241580Y-121670600D02*
X194241580Y-120448600D01*
X194281580Y-118768600D02*
X194281580Y-117541600D01*
X194281580Y-121675600D02*
X194281580Y-120448600D01*
X194321580Y-118768600D02*
X194321580Y-117537600D01*
X194321580Y-121679600D02*
X194321580Y-120448600D01*
X194361580Y-121682600D02*
X194361580Y-117534600D01*
X194401580Y-121685600D02*
X194401580Y-117531600D01*
X194441580Y-121687600D02*
X194441580Y-117529600D01*
X194481580Y-121688600D02*
X194481580Y-117528600D01*
X194521580Y-121688600D02*
X194521580Y-117528600D01*
X196641580Y-119608600D02*
G75*
G03X196641580Y-119608600I-2120000J0D01*
G01*
X142274620Y-74105520D02*
X142604620Y-74105520D01*
X142274620Y-67565520D02*
X142274620Y-74105520D01*
X142604620Y-67565520D02*
X142274620Y-67565520D01*
X145014620Y-74105520D02*
X144684620Y-74105520D01*
X145014620Y-67565520D02*
X145014620Y-74105520D01*
X144684620Y-67565520D02*
X145014620Y-67565520D01*
X105035100Y-101174220D02*
X105035100Y-100844220D01*
X98495100Y-101174220D02*
X105035100Y-101174220D01*
X98495100Y-100844220D02*
X98495100Y-101174220D01*
X105035100Y-98434220D02*
X105035100Y-98764220D01*
X98495100Y-98434220D02*
X105035100Y-98434220D01*
X98495100Y-98764220D02*
X98495100Y-98434220D01*
X105070660Y-78624100D02*
X105070660Y-78294100D01*
X98530660Y-78624100D02*
X105070660Y-78624100D01*
X98530660Y-78294100D02*
X98530660Y-78624100D01*
X105070660Y-75884100D02*
X105070660Y-76214100D01*
X98530660Y-75884100D02*
X105070660Y-75884100D01*
X98530660Y-76214100D02*
X98530660Y-75884100D01*
X109772140Y-78599340D02*
X109772140Y-77269340D01*
X111102140Y-78599340D02*
X109772140Y-78599340D01*
X112372140Y-78599340D02*
X112372140Y-75939340D01*
X112372140Y-75939340D02*
X117512140Y-75939340D01*
X112372140Y-78599340D02*
X117512140Y-78599340D01*
X117512140Y-78599340D02*
X117512140Y-75939340D01*
X101558420Y-108314180D02*
X104298420Y-108314180D01*
X101558420Y-113554180D02*
X104298420Y-113554180D01*
X104298420Y-113554180D02*
X104298420Y-108314180D01*
X101558420Y-113554180D02*
X101558420Y-108314180D01*
X102645540Y-81496860D02*
X105385540Y-81496860D01*
X102645540Y-86736860D02*
X105385540Y-86736860D01*
X105385540Y-86736860D02*
X105385540Y-81496860D01*
X102645540Y-86736860D02*
X102645540Y-81496860D01*
X146779940Y-113053800D02*
X146779940Y-110313800D01*
X152019940Y-113053800D02*
X152019940Y-110313800D01*
X152019940Y-110313800D02*
X146779940Y-110313800D01*
X152019940Y-113053800D02*
X146779940Y-113053800D01*
D10*
X189205159Y-82462736D02*
X189157540Y-82415117D01*
X189109920Y-82319879D01*
X189109920Y-82081783D01*
X189157540Y-81986545D01*
X189205159Y-81938926D01*
X189300397Y-81891307D01*
X189395635Y-81891307D01*
X189538492Y-81938926D01*
X190109920Y-82510355D01*
X190109920Y-81891307D01*
X189538492Y-81319879D02*
X189490873Y-81415117D01*
X189443254Y-81462736D01*
X189348016Y-81510355D01*
X189300397Y-81510355D01*
X189205159Y-81462736D01*
X189157540Y-81415117D01*
X189109920Y-81319879D01*
X189109920Y-81129402D01*
X189157540Y-81034164D01*
X189205159Y-80986545D01*
X189300397Y-80938926D01*
X189348016Y-80938926D01*
X189443254Y-80986545D01*
X189490873Y-81034164D01*
X189538492Y-81129402D01*
X189538492Y-81319879D01*
X189586111Y-81415117D01*
X189633730Y-81462736D01*
X189728968Y-81510355D01*
X189919444Y-81510355D01*
X190014682Y-81462736D01*
X190062301Y-81415117D01*
X190109920Y-81319879D01*
X190109920Y-81129402D01*
X190062301Y-81034164D01*
X190014682Y-80986545D01*
X189919444Y-80938926D01*
X189728968Y-80938926D01*
X189633730Y-80986545D01*
X189586111Y-81034164D01*
X189538492Y-81129402D01*
X190014682Y-79938926D02*
X190062301Y-79986545D01*
X190109920Y-80129402D01*
X190109920Y-80224640D01*
X190062301Y-80367498D01*
X189967063Y-80462736D01*
X189871825Y-80510355D01*
X189681349Y-80557974D01*
X189538492Y-80557974D01*
X189348016Y-80510355D01*
X189252778Y-80462736D01*
X189157540Y-80367498D01*
X189109920Y-80224640D01*
X189109920Y-80129402D01*
X189157540Y-79986545D01*
X189205159Y-79938926D01*
X189205159Y-79557974D02*
X189157540Y-79510355D01*
X189109920Y-79415117D01*
X189109920Y-79177021D01*
X189157540Y-79081783D01*
X189205159Y-79034164D01*
X189300397Y-78986545D01*
X189395635Y-78986545D01*
X189538492Y-79034164D01*
X190109920Y-79605593D01*
X190109920Y-78986545D01*
X189109920Y-78081783D02*
X189109920Y-78557974D01*
X189586111Y-78605593D01*
X189538492Y-78557974D01*
X189490873Y-78462736D01*
X189490873Y-78224640D01*
X189538492Y-78129402D01*
X189586111Y-78081783D01*
X189681349Y-78034164D01*
X189919444Y-78034164D01*
X190014682Y-78081783D01*
X190062301Y-78129402D01*
X190109920Y-78224640D01*
X190109920Y-78462736D01*
X190062301Y-78557974D01*
X190014682Y-78605593D01*
X189109920Y-77177021D02*
X189109920Y-77367498D01*
X189157540Y-77462736D01*
X189205159Y-77510355D01*
X189348016Y-77605593D01*
X189538492Y-77653212D01*
X189919444Y-77653212D01*
X190014682Y-77605593D01*
X190062301Y-77557974D01*
X190109920Y-77462736D01*
X190109920Y-77272260D01*
X190062301Y-77177021D01*
X190014682Y-77129402D01*
X189919444Y-77081783D01*
X189681349Y-77081783D01*
X189586111Y-77129402D01*
X189538492Y-77177021D01*
X189490873Y-77272260D01*
X189490873Y-77462736D01*
X189538492Y-77557974D01*
X189586111Y-77605593D01*
X189681349Y-77653212D01*
X189117540Y-101268065D02*
X189117540Y-101458541D01*
X189165160Y-101553780D01*
X189212779Y-101601399D01*
X189355636Y-101696637D01*
X189546112Y-101744256D01*
X189927064Y-101744256D01*
X190022302Y-101696637D01*
X190069921Y-101649018D01*
X190117540Y-101553780D01*
X190117540Y-101363303D01*
X190069921Y-101268065D01*
X190022302Y-101220446D01*
X189927064Y-101172827D01*
X189688969Y-101172827D01*
X189593731Y-101220446D01*
X189546112Y-101268065D01*
X189498493Y-101363303D01*
X189498493Y-101553780D01*
X189546112Y-101649018D01*
X189593731Y-101696637D01*
X189688969Y-101744256D01*
X189212779Y-100791875D02*
X189165160Y-100744256D01*
X189117540Y-100649018D01*
X189117540Y-100410922D01*
X189165160Y-100315684D01*
X189212779Y-100268065D01*
X189308017Y-100220446D01*
X189403255Y-100220446D01*
X189546112Y-100268065D01*
X190117540Y-100839494D01*
X190117540Y-100220446D01*
X189212779Y-99839494D02*
X189165160Y-99791875D01*
X189117540Y-99696637D01*
X189117540Y-99458541D01*
X189165160Y-99363303D01*
X189212779Y-99315684D01*
X189308017Y-99268065D01*
X189403255Y-99268065D01*
X189546112Y-99315684D01*
X190117540Y-99887113D01*
X190117540Y-99268065D01*
X189117540Y-98363303D02*
X189117540Y-98839494D01*
X189593731Y-98887113D01*
X189546112Y-98839494D01*
X189498493Y-98744256D01*
X189498493Y-98506160D01*
X189546112Y-98410922D01*
X189593731Y-98363303D01*
X189688969Y-98315684D01*
X189927064Y-98315684D01*
X190022302Y-98363303D01*
X190069921Y-98410922D01*
X190117540Y-98506160D01*
X190117540Y-98744256D01*
X190069921Y-98839494D01*
X190022302Y-98887113D01*
X189117540Y-97458541D02*
X189117540Y-97649018D01*
X189165160Y-97744256D01*
X189212779Y-97791875D01*
X189355636Y-97887113D01*
X189546112Y-97934732D01*
X189927064Y-97934732D01*
X190022302Y-97887113D01*
X190069921Y-97839494D01*
X190117540Y-97744256D01*
X190117540Y-97553780D01*
X190069921Y-97458541D01*
X190022302Y-97410922D01*
X189927064Y-97363303D01*
X189688969Y-97363303D01*
X189593731Y-97410922D01*
X189546112Y-97458541D01*
X189498493Y-97553780D01*
X189498493Y-97744256D01*
X189546112Y-97839494D01*
X189593731Y-97887113D01*
X189688969Y-97934732D01*
X189079440Y-121041965D02*
X189079440Y-121232441D01*
X189127060Y-121327680D01*
X189174679Y-121375299D01*
X189317536Y-121470537D01*
X189508012Y-121518156D01*
X189888964Y-121518156D01*
X189984202Y-121470537D01*
X190031821Y-121422918D01*
X190079440Y-121327680D01*
X190079440Y-121137203D01*
X190031821Y-121041965D01*
X189984202Y-120994346D01*
X189888964Y-120946727D01*
X189650869Y-120946727D01*
X189555631Y-120994346D01*
X189508012Y-121041965D01*
X189460393Y-121137203D01*
X189460393Y-121327680D01*
X189508012Y-121422918D01*
X189555631Y-121470537D01*
X189650869Y-121518156D01*
X189174679Y-120565775D02*
X189127060Y-120518156D01*
X189079440Y-120422918D01*
X189079440Y-120184822D01*
X189127060Y-120089584D01*
X189174679Y-120041965D01*
X189269917Y-119994346D01*
X189365155Y-119994346D01*
X189508012Y-120041965D01*
X190079440Y-120613394D01*
X190079440Y-119994346D01*
X189174679Y-119613394D02*
X189127060Y-119565775D01*
X189079440Y-119470537D01*
X189079440Y-119232441D01*
X189127060Y-119137203D01*
X189174679Y-119089584D01*
X189269917Y-119041965D01*
X189365155Y-119041965D01*
X189508012Y-119089584D01*
X190079440Y-119661013D01*
X190079440Y-119041965D01*
X189079440Y-118137203D02*
X189079440Y-118613394D01*
X189555631Y-118661013D01*
X189508012Y-118613394D01*
X189460393Y-118518156D01*
X189460393Y-118280060D01*
X189508012Y-118184822D01*
X189555631Y-118137203D01*
X189650869Y-118089584D01*
X189888964Y-118089584D01*
X189984202Y-118137203D01*
X190031821Y-118184822D01*
X190079440Y-118280060D01*
X190079440Y-118518156D01*
X190031821Y-118613394D01*
X189984202Y-118661013D01*
X189079440Y-117232441D02*
X189079440Y-117422918D01*
X189127060Y-117518156D01*
X189174679Y-117565775D01*
X189317536Y-117661013D01*
X189508012Y-117708632D01*
X189888964Y-117708632D01*
X189984202Y-117661013D01*
X190031821Y-117613394D01*
X190079440Y-117518156D01*
X190079440Y-117327680D01*
X190031821Y-117232441D01*
X189984202Y-117184822D01*
X189888964Y-117137203D01*
X189650869Y-117137203D01*
X189555631Y-117184822D01*
X189508012Y-117232441D01*
X189460393Y-117327680D01*
X189460393Y-117518156D01*
X189508012Y-117613394D01*
X189555631Y-117661013D01*
X189650869Y-117708632D01*
X136071540Y-118995461D02*
X136023920Y-119090700D01*
X136023920Y-119233557D01*
X136071540Y-119376414D01*
X136166778Y-119471652D01*
X136262016Y-119519271D01*
X136452492Y-119566890D01*
X136595349Y-119566890D01*
X136785825Y-119519271D01*
X136881063Y-119471652D01*
X136976301Y-119376414D01*
X137023920Y-119233557D01*
X137023920Y-119138319D01*
X136976301Y-118995461D01*
X136928682Y-118947842D01*
X136595349Y-118947842D01*
X136595349Y-119138319D01*
X136738206Y-118566890D02*
X136738206Y-118090700D01*
X137023920Y-118662128D02*
X136023920Y-118328795D01*
X137023920Y-117995461D01*
X137023920Y-117185938D02*
X137023920Y-117662128D01*
X136023920Y-117662128D01*
X136119159Y-116900223D02*
X136071540Y-116852604D01*
X136023920Y-116757366D01*
X136023920Y-116519271D01*
X136071540Y-116424033D01*
X136119159Y-116376414D01*
X136214397Y-116328795D01*
X136309635Y-116328795D01*
X136452492Y-116376414D01*
X137023920Y-116947842D01*
X137023920Y-116328795D01*
X136119159Y-115947842D02*
X136071540Y-115900223D01*
X136023920Y-115804985D01*
X136023920Y-115566890D01*
X136071540Y-115471652D01*
X136119159Y-115424033D01*
X136214397Y-115376414D01*
X136309635Y-115376414D01*
X136452492Y-115424033D01*
X137023920Y-115995461D01*
X137023920Y-115376414D01*
X136023920Y-115090700D02*
X137023920Y-114757366D01*
X136023920Y-114424033D01*
X137023920Y-113566890D02*
X137023920Y-114138319D01*
X137023920Y-113852604D02*
X136023920Y-113852604D01*
X136166778Y-113947842D01*
X136262016Y-114043080D01*
X136309635Y-114138319D01*
X136023920Y-112947842D02*
X136023920Y-112852604D01*
X136071540Y-112757366D01*
X136119159Y-112709747D01*
X136214397Y-112662128D01*
X136404873Y-112614509D01*
X136642968Y-112614509D01*
X136833444Y-112662128D01*
X136928682Y-112709747D01*
X136976301Y-112757366D01*
X137023920Y-112852604D01*
X137023920Y-112947842D01*
X136976301Y-113043080D01*
X136928682Y-113090700D01*
X136833444Y-113138319D01*
X136642968Y-113185938D01*
X136404873Y-113185938D01*
X136214397Y-113138319D01*
X136119159Y-113090700D01*
X136071540Y-113043080D01*
X136023920Y-112947842D01*
X124390720Y-91733357D02*
X124390720Y-91066690D01*
X125390720Y-91495261D01*
X124724054Y-90257166D02*
X125390720Y-90257166D01*
X124343101Y-90495261D02*
X125057387Y-90733357D01*
X125057387Y-90114309D01*
X125390720Y-89257166D02*
X125390720Y-89733357D01*
X124390720Y-89733357D01*
X125343101Y-88971452D02*
X125390720Y-88828595D01*
X125390720Y-88590500D01*
X125343101Y-88495261D01*
X125295482Y-88447642D01*
X125200244Y-88400023D01*
X125105006Y-88400023D01*
X125009768Y-88447642D01*
X124962149Y-88495261D01*
X124914530Y-88590500D01*
X124866911Y-88780976D01*
X124819292Y-88876214D01*
X124771673Y-88923833D01*
X124676435Y-88971452D01*
X124581197Y-88971452D01*
X124485959Y-88923833D01*
X124438340Y-88876214D01*
X124390720Y-88780976D01*
X124390720Y-88542880D01*
X124438340Y-88400023D01*
X124390720Y-88066690D02*
X124390720Y-87400023D01*
X125390720Y-87828595D01*
X124724054Y-86590500D02*
X125390720Y-86590500D01*
X124343101Y-86828595D02*
X125057387Y-87066690D01*
X125057387Y-86447642D01*
X149584113Y-89904842D02*
X149536494Y-89952461D01*
X149393637Y-90000080D01*
X149298399Y-90000080D01*
X149155541Y-89952461D01*
X149060303Y-89857223D01*
X149012684Y-89761985D01*
X148965065Y-89571509D01*
X148965065Y-89428652D01*
X149012684Y-89238176D01*
X149060303Y-89142938D01*
X149155541Y-89047700D01*
X149298399Y-89000080D01*
X149393637Y-89000080D01*
X149536494Y-89047700D01*
X149584113Y-89095319D01*
X149965065Y-89095319D02*
X150012684Y-89047700D01*
X150107922Y-89000080D01*
X150346018Y-89000080D01*
X150441256Y-89047700D01*
X150488875Y-89095319D01*
X150536494Y-89190557D01*
X150536494Y-89285795D01*
X150488875Y-89428652D01*
X149917446Y-90000080D01*
X150536494Y-90000080D01*
X149289153Y-74975362D02*
X149241534Y-75022981D01*
X149098677Y-75070600D01*
X149003439Y-75070600D01*
X148860581Y-75022981D01*
X148765343Y-74927743D01*
X148717724Y-74832505D01*
X148670105Y-74642029D01*
X148670105Y-74499172D01*
X148717724Y-74308696D01*
X148765343Y-74213458D01*
X148860581Y-74118220D01*
X149003439Y-74070600D01*
X149098677Y-74070600D01*
X149241534Y-74118220D01*
X149289153Y-74165839D01*
X149622486Y-74070600D02*
X150241534Y-74070600D01*
X149908200Y-74451553D01*
X150051058Y-74451553D01*
X150146296Y-74499172D01*
X150193915Y-74546791D01*
X150241534Y-74642029D01*
X150241534Y-74880124D01*
X150193915Y-74975362D01*
X150146296Y-75022981D01*
X150051058Y-75070600D01*
X149765343Y-75070600D01*
X149670105Y-75022981D01*
X149622486Y-74975362D01*
X194343993Y-123110262D02*
X194296374Y-123157881D01*
X194153517Y-123205500D01*
X194058279Y-123205500D01*
X193915421Y-123157881D01*
X193820183Y-123062643D01*
X193772564Y-122967405D01*
X193724945Y-122776929D01*
X193724945Y-122634072D01*
X193772564Y-122443596D01*
X193820183Y-122348358D01*
X193915421Y-122253120D01*
X194058279Y-122205500D01*
X194153517Y-122205500D01*
X194296374Y-122253120D01*
X194343993Y-122300739D01*
X195201136Y-122205500D02*
X195010660Y-122205500D01*
X194915421Y-122253120D01*
X194867802Y-122300739D01*
X194772564Y-122443596D01*
X194724945Y-122634072D01*
X194724945Y-123015024D01*
X194772564Y-123110262D01*
X194820183Y-123157881D01*
X194915421Y-123205500D01*
X195105898Y-123205500D01*
X195201136Y-123157881D01*
X195248755Y-123110262D01*
X195296374Y-123015024D01*
X195296374Y-122776929D01*
X195248755Y-122681691D01*
X195201136Y-122634072D01*
X195105898Y-122586453D01*
X194915421Y-122586453D01*
X194820183Y-122634072D01*
X194772564Y-122681691D01*
X194724945Y-122776929D01*
X141617960Y-70951386D02*
X141141770Y-71284720D01*
X141617960Y-71522815D02*
X140617960Y-71522815D01*
X140617960Y-71141862D01*
X140665580Y-71046624D01*
X140713199Y-70999005D01*
X140808437Y-70951386D01*
X140951294Y-70951386D01*
X141046532Y-70999005D01*
X141094151Y-71046624D01*
X141141770Y-71141862D01*
X141141770Y-71522815D01*
X141617960Y-69999005D02*
X141617960Y-70570434D01*
X141617960Y-70284720D02*
X140617960Y-70284720D01*
X140760818Y-70379958D01*
X140856056Y-70475196D01*
X140903675Y-70570434D01*
X101598433Y-97886600D02*
X101265100Y-97410410D01*
X101027004Y-97886600D02*
X101027004Y-96886600D01*
X101407957Y-96886600D01*
X101503195Y-96934220D01*
X101550814Y-96981839D01*
X101598433Y-97077077D01*
X101598433Y-97219934D01*
X101550814Y-97315172D01*
X101503195Y-97362791D01*
X101407957Y-97410410D01*
X101027004Y-97410410D01*
X101931766Y-96886600D02*
X102550814Y-96886600D01*
X102217480Y-97267553D01*
X102360338Y-97267553D01*
X102455576Y-97315172D01*
X102503195Y-97362791D01*
X102550814Y-97458029D01*
X102550814Y-97696124D01*
X102503195Y-97791362D01*
X102455576Y-97838981D01*
X102360338Y-97886600D01*
X102074623Y-97886600D01*
X101979385Y-97838981D01*
X101931766Y-97791362D01*
X101633993Y-75336480D02*
X101300660Y-74860290D01*
X101062564Y-75336480D02*
X101062564Y-74336480D01*
X101443517Y-74336480D01*
X101538755Y-74384100D01*
X101586374Y-74431719D01*
X101633993Y-74526957D01*
X101633993Y-74669814D01*
X101586374Y-74765052D01*
X101538755Y-74812671D01*
X101443517Y-74860290D01*
X101062564Y-74860290D01*
X102014945Y-74431719D02*
X102062564Y-74384100D01*
X102157802Y-74336480D01*
X102395898Y-74336480D01*
X102491136Y-74384100D01*
X102538755Y-74431719D01*
X102586374Y-74526957D01*
X102586374Y-74622195D01*
X102538755Y-74765052D01*
X101967326Y-75336480D01*
X102586374Y-75336480D01*
X108763727Y-74780400D02*
X108763727Y-73780400D01*
X109097060Y-74494686D01*
X109430394Y-73780400D01*
X109430394Y-74780400D01*
X110097060Y-73780400D02*
X110287537Y-73780400D01*
X110382775Y-73828020D01*
X110478013Y-73923258D01*
X110525632Y-74113734D01*
X110525632Y-74447067D01*
X110478013Y-74637543D01*
X110382775Y-74732781D01*
X110287537Y-74780400D01*
X110097060Y-74780400D01*
X110001822Y-74732781D01*
X109906584Y-74637543D01*
X109858965Y-74447067D01*
X109858965Y-74113734D01*
X109906584Y-73923258D01*
X110001822Y-73828020D01*
X110097060Y-73780400D01*
X110954203Y-74780400D02*
X110954203Y-73780400D01*
X111192299Y-73780400D01*
X111335156Y-73828020D01*
X111430394Y-73923258D01*
X111478013Y-74018496D01*
X111525632Y-74208972D01*
X111525632Y-74351829D01*
X111478013Y-74542305D01*
X111430394Y-74637543D01*
X111335156Y-74732781D01*
X111192299Y-74780400D01*
X110954203Y-74780400D01*
X111954203Y-74256591D02*
X112287537Y-74256591D01*
X112430394Y-74780400D02*
X111954203Y-74780400D01*
X111954203Y-73780400D01*
X112430394Y-73780400D01*
X112620870Y-74875639D02*
X113382775Y-74875639D01*
X113573251Y-74732781D02*
X113716108Y-74780400D01*
X113954203Y-74780400D01*
X114049441Y-74732781D01*
X114097060Y-74685162D01*
X114144680Y-74589924D01*
X114144680Y-74494686D01*
X114097060Y-74399448D01*
X114049441Y-74351829D01*
X113954203Y-74304210D01*
X113763727Y-74256591D01*
X113668489Y-74208972D01*
X113620870Y-74161353D01*
X113573251Y-74066115D01*
X113573251Y-73970877D01*
X113620870Y-73875639D01*
X113668489Y-73828020D01*
X113763727Y-73780400D01*
X114001822Y-73780400D01*
X114144680Y-73828020D01*
X114478013Y-73780400D02*
X114716108Y-74780400D01*
X114906584Y-74066115D01*
X115097060Y-74780400D01*
X115335156Y-73780400D01*
X115716108Y-74780400D02*
X115716108Y-73780400D01*
X116049441Y-73780400D02*
X116620870Y-73780400D01*
X116335156Y-74780400D02*
X116335156Y-73780400D01*
X117525632Y-74685162D02*
X117478013Y-74732781D01*
X117335156Y-74780400D01*
X117239918Y-74780400D01*
X117097060Y-74732781D01*
X117001822Y-74637543D01*
X116954203Y-74542305D01*
X116906584Y-74351829D01*
X116906584Y-74208972D01*
X116954203Y-74018496D01*
X117001822Y-73923258D01*
X117097060Y-73828020D01*
X117239918Y-73780400D01*
X117335156Y-73780400D01*
X117478013Y-73828020D01*
X117525632Y-73875639D01*
X117954203Y-74780400D02*
X117954203Y-73780400D01*
X117954203Y-74256591D02*
X118525632Y-74256591D01*
X118525632Y-74780400D02*
X118525632Y-73780400D01*
X100785562Y-111100846D02*
X100833181Y-111148465D01*
X100880800Y-111291322D01*
X100880800Y-111386560D01*
X100833181Y-111529418D01*
X100737943Y-111624656D01*
X100642705Y-111672275D01*
X100452229Y-111719894D01*
X100309372Y-111719894D01*
X100118896Y-111672275D01*
X100023658Y-111624656D01*
X99928420Y-111529418D01*
X99880800Y-111386560D01*
X99880800Y-111291322D01*
X99928420Y-111148465D01*
X99976039Y-111100846D01*
X100214134Y-110243703D02*
X100880800Y-110243703D01*
X99833181Y-110481799D02*
X100547467Y-110719894D01*
X100547467Y-110100846D01*
X101872682Y-84283526D02*
X101920301Y-84331145D01*
X101967920Y-84474002D01*
X101967920Y-84569240D01*
X101920301Y-84712098D01*
X101825063Y-84807336D01*
X101729825Y-84854955D01*
X101539349Y-84902574D01*
X101396492Y-84902574D01*
X101206016Y-84854955D01*
X101110778Y-84807336D01*
X101015540Y-84712098D01*
X100967920Y-84569240D01*
X100967920Y-84474002D01*
X101015540Y-84331145D01*
X101063159Y-84283526D01*
X100967920Y-83378764D02*
X100967920Y-83854955D01*
X101444111Y-83902574D01*
X101396492Y-83854955D01*
X101348873Y-83759717D01*
X101348873Y-83521621D01*
X101396492Y-83426383D01*
X101444111Y-83378764D01*
X101539349Y-83331145D01*
X101777444Y-83331145D01*
X101872682Y-83378764D01*
X101920301Y-83426383D01*
X101967920Y-83521621D01*
X101967920Y-83759717D01*
X101920301Y-83854955D01*
X101872682Y-83902574D01*
X149167553Y-114382822D02*
X149119934Y-114430441D01*
X148977077Y-114478060D01*
X148881839Y-114478060D01*
X148738981Y-114430441D01*
X148643743Y-114335203D01*
X148596124Y-114239965D01*
X148548505Y-114049489D01*
X148548505Y-113906632D01*
X148596124Y-113716156D01*
X148643743Y-113620918D01*
X148738981Y-113525680D01*
X148881839Y-113478060D01*
X148977077Y-113478060D01*
X149119934Y-113525680D01*
X149167553Y-113573299D01*
X150119934Y-114478060D02*
X149548505Y-114478060D01*
X149834220Y-114478060D02*
X149834220Y-113478060D01*
X149738981Y-113620918D01*
X149643743Y-113716156D01*
X149548505Y-113763775D01*
M02*
