M48
; DRILL file {KiCad (5.1.5-0)} date 2021 March 10, Wednesday 11:50:12
; FORMAT={3:3/ absolute / metric / suppress leading zeros}
; #@! TF.CreationDate,2021-03-10T11:50:12+01:00
; #@! TF.GenerationSoftware,Kicad,Pcbnew,(5.1.5-0)
FMAT,2
METRIC,TZ
T1C0.600
T2C0.800
T3C1.000
%
G90
G05
T1
X107503Y-101625
X110159Y-129856
X116350Y-101430
X119113Y-98163
X124958Y-129883
X126789Y-89106
X126825Y-77269
X126825Y-107439
X128679Y-129908
X132705Y-129857
X134272Y-98174
X136591Y-129883
X138661Y-115664
X138676Y-117432
X141188Y-129870
X148206Y-66861
X148455Y-94563
X148455Y-96363
X148455Y-98163
X148455Y-99963
X148455Y-101763
X148455Y-103563
X148455Y-105363
X148455Y-107163
X150802Y-125085
X152542Y-130129
X155616Y-130106
X158143Y-130106
X164302Y-130124
X164450Y-118425
X169550Y-67059
X181439Y-129783
X191686Y-107114
X191722Y-87295
X193522Y-119609
X195522Y-119609
T2
X143645Y-67026
X143645Y-74646
X106302Y-112281
X106302Y-119901
X108842Y-112281
X108842Y-119901
X111382Y-112281
X111382Y-119901
X113922Y-112281
X113922Y-119901
X116462Y-112281
X116462Y-119901
X119002Y-112281
X119002Y-119901
X121542Y-112281
X121542Y-119901
X124082Y-112281
X124082Y-119901
X126622Y-112281
X126622Y-119901
X129162Y-112281
X129162Y-119901
X131702Y-112281
X131702Y-119901
X134242Y-112281
X134242Y-119901
X97991Y-77254
X105611Y-77254
X148239Y-91978
X150739Y-91978
X107368Y-85281
X107368Y-92901
X109908Y-85281
X109908Y-92901
X112448Y-85281
X112448Y-92901
X114988Y-85281
X114988Y-92901
X117528Y-85281
X117528Y-92901
X120068Y-85281
X120068Y-92901
X122608Y-85281
X122608Y-92901
X148150Y-111684
X150650Y-111684
X148206Y-72118
X150706Y-72118
X154308Y-72152
X154308Y-87392
X156848Y-72152
X156848Y-87392
X159388Y-72152
X159388Y-87392
X161928Y-72152
X161928Y-87392
X164468Y-72152
X164468Y-87392
X167008Y-72152
X167008Y-87392
X169548Y-72152
X169548Y-87392
X172088Y-72152
X172088Y-87392
X174628Y-72152
X174628Y-87392
X177168Y-72152
X177168Y-87392
X179708Y-72152
X179708Y-87392
X182248Y-72152
X182248Y-87392
X184788Y-72152
X184788Y-87392
X187328Y-72152
X187328Y-87392
X102928Y-109684
X102928Y-112184
X154315Y-91934
X154315Y-107174
X156855Y-91934
X156855Y-107174
X159395Y-91934
X159395Y-107174
X161935Y-91934
X161935Y-107174
X164475Y-91934
X164475Y-107174
X167015Y-91934
X167015Y-107174
X169555Y-91934
X169555Y-107174
X172095Y-91934
X172095Y-107174
X174635Y-91934
X174635Y-107174
X177175Y-91934
X177175Y-107174
X179715Y-91934
X179715Y-107174
X182255Y-91934
X182255Y-107174
X184795Y-91934
X184795Y-107174
X187335Y-91934
X187335Y-107174
X154277Y-111708
X154277Y-126948
X156817Y-111708
X156817Y-126948
X159357Y-111708
X159357Y-126948
X161897Y-111708
X161897Y-126948
X164437Y-111708
X164437Y-126948
X166977Y-111708
X166977Y-126948
X169517Y-111708
X169517Y-126948
X172057Y-111708
X172057Y-126948
X174597Y-111708
X174597Y-126948
X177137Y-111708
X177137Y-126948
X179677Y-111708
X179677Y-126948
X182217Y-111708
X182217Y-126948
X184757Y-111708
X184757Y-126948
X187297Y-111708
X187297Y-126948
X104016Y-82867
X104016Y-85367
X97955Y-99804
X105575Y-99804
T3
X111102Y-77269
X113642Y-77269
X116182Y-77269
T0
M30
