G04 #@! TF.GenerationSoftware,KiCad,Pcbnew,(5.1.5-0)*
G04 #@! TF.CreationDate,2021-03-10T11:50:08+01:00*
G04 #@! TF.ProjectId,Apple1Cartridge,4170706c-6531-4436-9172-747269646765,rev?*
G04 #@! TF.SameCoordinates,Original*
G04 #@! TF.FileFunction,Copper,L1,Top*
G04 #@! TF.FilePolarity,Positive*
%FSLAX46Y46*%
G04 Gerber Fmt 4.6, Leading zero omitted, Abs format (unit mm)*
G04 Created by KiCad (PCBNEW (5.1.5-0)) date 2021-03-10 11:50:08*
%MOMM*%
%LPD*%
G04 APERTURE LIST*
%ADD10C,0.150000*%
%ADD11O,1.600000X2.400000*%
%ADD12R,1.600000X2.400000*%
%ADD13O,1.600000X1.600000*%
%ADD14R,1.600000X1.600000*%
%ADD15C,1.600000*%
%ADD16C,1.200000*%
%ADD17R,1.200000X1.200000*%
%ADD18O,1.700000X1.700000*%
%ADD19R,1.700000X1.700000*%
%ADD20C,0.100000*%
%ADD21C,1.500000*%
%ADD22C,1.300000*%
%ADD23C,0.400000*%
G04 APERTURE END LIST*
D10*
X93480951Y-128679960D02*
X94052380Y-128679960D01*
X93766665Y-129679960D02*
X93766665Y-128679960D01*
X94576189Y-128679960D02*
X94766665Y-128679960D01*
X94861903Y-128727580D01*
X94957141Y-128822818D01*
X95004760Y-129013294D01*
X95004760Y-129346627D01*
X94957141Y-129537103D01*
X94861903Y-129632341D01*
X94766665Y-129679960D01*
X94576189Y-129679960D01*
X94480951Y-129632341D01*
X94385713Y-129537103D01*
X94338094Y-129346627D01*
X94338094Y-129013294D01*
X94385713Y-128822818D01*
X94480951Y-128727580D01*
X94576189Y-128679960D01*
X95338094Y-128679960D02*
X95576189Y-129679960D01*
X95766665Y-128965675D01*
X95957141Y-129679960D01*
X96195237Y-128679960D01*
X96528570Y-129394246D02*
X97004760Y-129394246D01*
X96433332Y-129679960D02*
X96766665Y-128679960D01*
X97099999Y-129679960D01*
X98004760Y-129679960D02*
X97671427Y-129203770D01*
X97433332Y-129679960D02*
X97433332Y-128679960D01*
X97814284Y-128679960D01*
X97909522Y-128727580D01*
X97957141Y-128775199D01*
X98004760Y-128870437D01*
X98004760Y-129013294D01*
X97957141Y-129108532D01*
X97909522Y-129156151D01*
X97814284Y-129203770D01*
X97433332Y-129203770D01*
X98433332Y-129679960D02*
X98433332Y-128679960D01*
X98671427Y-128679960D01*
X98814284Y-128727580D01*
X98909522Y-128822818D01*
X98957141Y-128918056D01*
X99004760Y-129108532D01*
X99004760Y-129251389D01*
X98957141Y-129441865D01*
X98909522Y-129537103D01*
X98814284Y-129632341D01*
X98671427Y-129679960D01*
X98433332Y-129679960D01*
X99385713Y-129632341D02*
X99528570Y-129679960D01*
X99766665Y-129679960D01*
X99861903Y-129632341D01*
X99909522Y-129584722D01*
X99957141Y-129489484D01*
X99957141Y-129394246D01*
X99909522Y-129299008D01*
X99861903Y-129251389D01*
X99766665Y-129203770D01*
X99576189Y-129156151D01*
X99480951Y-129108532D01*
X99433332Y-129060913D01*
X99385713Y-128965675D01*
X99385713Y-128870437D01*
X99433332Y-128775199D01*
X99480951Y-128727580D01*
X99576189Y-128679960D01*
X99814284Y-128679960D01*
X99957141Y-128727580D01*
X101147618Y-129156151D02*
X101480951Y-129156151D01*
X101623808Y-129679960D02*
X101147618Y-129679960D01*
X101147618Y-128679960D01*
X101623808Y-128679960D01*
X102052380Y-129679960D02*
X102052380Y-128679960D01*
X102290475Y-128679960D01*
X102433332Y-128727580D01*
X102528570Y-128822818D01*
X102576189Y-128918056D01*
X102623808Y-129108532D01*
X102623808Y-129251389D01*
X102576189Y-129441865D01*
X102528570Y-129537103D01*
X102433332Y-129632341D01*
X102290475Y-129679960D01*
X102052380Y-129679960D01*
X103576189Y-128727580D02*
X103480951Y-128679960D01*
X103338094Y-128679960D01*
X103195237Y-128727580D01*
X103099999Y-128822818D01*
X103052380Y-128918056D01*
X103004760Y-129108532D01*
X103004760Y-129251389D01*
X103052380Y-129441865D01*
X103099999Y-129537103D01*
X103195237Y-129632341D01*
X103338094Y-129679960D01*
X103433332Y-129679960D01*
X103576189Y-129632341D01*
X103623808Y-129584722D01*
X103623808Y-129251389D01*
X103433332Y-129251389D01*
X104052380Y-129156151D02*
X104385713Y-129156151D01*
X104528570Y-129679960D02*
X104052380Y-129679960D01*
X104052380Y-128679960D01*
X104528570Y-128679960D01*
D11*
X154307540Y-72152260D03*
X187327540Y-87392260D03*
X156847540Y-72152260D03*
X184787540Y-87392260D03*
X159387540Y-72152260D03*
X182247540Y-87392260D03*
X161927540Y-72152260D03*
X179707540Y-87392260D03*
X164467540Y-72152260D03*
X177167540Y-87392260D03*
X167007540Y-72152260D03*
X174627540Y-87392260D03*
X169547540Y-72152260D03*
X172087540Y-87392260D03*
X172087540Y-72152260D03*
X169547540Y-87392260D03*
X174627540Y-72152260D03*
X167007540Y-87392260D03*
X177167540Y-72152260D03*
X164467540Y-87392260D03*
X179707540Y-72152260D03*
X161927540Y-87392260D03*
X182247540Y-72152260D03*
X159387540Y-87392260D03*
X184787540Y-72152260D03*
X156847540Y-87392260D03*
X187327540Y-72152260D03*
D12*
X154307540Y-87392260D03*
D13*
X154315160Y-91933780D03*
X187335160Y-107173780D03*
X156855160Y-91933780D03*
X184795160Y-107173780D03*
X159395160Y-91933780D03*
X182255160Y-107173780D03*
X161935160Y-91933780D03*
X179715160Y-107173780D03*
X164475160Y-91933780D03*
X177175160Y-107173780D03*
X167015160Y-91933780D03*
X174635160Y-107173780D03*
X169555160Y-91933780D03*
X172095160Y-107173780D03*
X172095160Y-91933780D03*
X169555160Y-107173780D03*
X174635160Y-91933780D03*
X167015160Y-107173780D03*
X177175160Y-91933780D03*
X164475160Y-107173780D03*
X179715160Y-91933780D03*
X161935160Y-107173780D03*
X182255160Y-91933780D03*
X159395160Y-107173780D03*
X184795160Y-91933780D03*
X156855160Y-107173780D03*
X187335160Y-91933780D03*
D14*
X154315160Y-107173780D03*
D11*
X154277060Y-111707680D03*
X187297060Y-126947680D03*
X156817060Y-111707680D03*
X184757060Y-126947680D03*
X159357060Y-111707680D03*
X182217060Y-126947680D03*
X161897060Y-111707680D03*
X179677060Y-126947680D03*
X164437060Y-111707680D03*
X177137060Y-126947680D03*
X166977060Y-111707680D03*
X174597060Y-126947680D03*
X169517060Y-111707680D03*
X172057060Y-126947680D03*
X172057060Y-111707680D03*
X169517060Y-126947680D03*
X174597060Y-111707680D03*
X166977060Y-126947680D03*
X177137060Y-111707680D03*
X164437060Y-126947680D03*
X179677060Y-111707680D03*
X161897060Y-126947680D03*
X182217060Y-111707680D03*
X159357060Y-126947680D03*
X184757060Y-111707680D03*
X156817060Y-126947680D03*
X187297060Y-111707680D03*
D12*
X154277060Y-126947680D03*
D11*
X106301540Y-112280700D03*
X134241540Y-119900700D03*
X108841540Y-112280700D03*
X131701540Y-119900700D03*
X111381540Y-112280700D03*
X129161540Y-119900700D03*
X113921540Y-112280700D03*
X126621540Y-119900700D03*
X116461540Y-112280700D03*
X124081540Y-119900700D03*
X119001540Y-112280700D03*
X121541540Y-119900700D03*
X121541540Y-112280700D03*
X119001540Y-119900700D03*
X124081540Y-112280700D03*
X116461540Y-119900700D03*
X126621540Y-112280700D03*
X113921540Y-119900700D03*
X129161540Y-112280700D03*
X111381540Y-119900700D03*
X131701540Y-112280700D03*
X108841540Y-119900700D03*
X134241540Y-112280700D03*
D12*
X106301540Y-119900700D03*
D11*
X107368340Y-85280500D03*
X122608340Y-92900500D03*
X109908340Y-85280500D03*
X120068340Y-92900500D03*
X112448340Y-85280500D03*
X117528340Y-92900500D03*
X114988340Y-85280500D03*
X114988340Y-92900500D03*
X117528340Y-85280500D03*
X112448340Y-92900500D03*
X120068340Y-85280500D03*
X109908340Y-92900500D03*
X122608340Y-85280500D03*
D12*
X107368340Y-92900500D03*
D15*
X148238840Y-91978480D03*
X150738840Y-91978480D03*
X148205820Y-72118220D03*
X150705820Y-72118220D03*
D16*
X193521580Y-119608600D03*
D17*
X195521580Y-119608600D03*
D13*
X143644620Y-74645520D03*
D15*
X143644620Y-67025520D03*
D13*
X105575100Y-99804220D03*
D15*
X97955100Y-99804220D03*
D13*
X105610660Y-77254100D03*
D15*
X97990660Y-77254100D03*
D18*
X116182140Y-77269340D03*
X113642140Y-77269340D03*
D19*
X111102140Y-77269340D03*
G04 #@! TA.AperFunction,ConnectorPad*
D20*
G36*
X190125505Y-131969063D02*
G01*
X190193311Y-131979121D01*
X190259804Y-131995777D01*
X190324344Y-132018870D01*
X190386311Y-132048178D01*
X190445106Y-132083418D01*
X190500164Y-132124252D01*
X190550954Y-132170286D01*
X190596988Y-132221076D01*
X190637822Y-132276134D01*
X190673062Y-132334929D01*
X190702370Y-132396896D01*
X190725463Y-132461436D01*
X190742119Y-132527929D01*
X190752177Y-132595735D01*
X190755540Y-132664200D01*
X190755540Y-140258800D01*
X190752177Y-140327265D01*
X190742119Y-140395071D01*
X190725463Y-140461564D01*
X190702370Y-140526104D01*
X190673062Y-140588071D01*
X190637822Y-140646866D01*
X190596988Y-140701924D01*
X190550954Y-140752714D01*
X190500164Y-140798748D01*
X190445106Y-140839582D01*
X190386311Y-140874822D01*
X190324344Y-140904130D01*
X190259804Y-140927223D01*
X190193311Y-140943879D01*
X190125505Y-140953937D01*
X190057040Y-140957300D01*
X188660040Y-140957300D01*
X188591575Y-140953937D01*
X188523769Y-140943879D01*
X188457276Y-140927223D01*
X188392736Y-140904130D01*
X188330769Y-140874822D01*
X188271974Y-140839582D01*
X188216916Y-140798748D01*
X188166126Y-140752714D01*
X188120092Y-140701924D01*
X188079258Y-140646866D01*
X188044018Y-140588071D01*
X188014710Y-140526104D01*
X187991617Y-140461564D01*
X187974961Y-140395071D01*
X187964903Y-140327265D01*
X187961540Y-140258800D01*
X187961540Y-132664200D01*
X187964903Y-132595735D01*
X187974961Y-132527929D01*
X187991617Y-132461436D01*
X188014710Y-132396896D01*
X188044018Y-132334929D01*
X188079258Y-132276134D01*
X188120092Y-132221076D01*
X188166126Y-132170286D01*
X188216916Y-132124252D01*
X188271974Y-132083418D01*
X188330769Y-132048178D01*
X188392736Y-132018870D01*
X188457276Y-131995777D01*
X188523769Y-131979121D01*
X188591575Y-131969063D01*
X188660040Y-131965700D01*
X190057040Y-131965700D01*
X190125505Y-131969063D01*
G37*
G04 #@! TD.AperFunction*
G04 #@! TA.AperFunction,ConnectorPad*
G36*
X186165505Y-131969063D02*
G01*
X186233311Y-131979121D01*
X186299804Y-131995777D01*
X186364344Y-132018870D01*
X186426311Y-132048178D01*
X186485106Y-132083418D01*
X186540164Y-132124252D01*
X186590954Y-132170286D01*
X186636988Y-132221076D01*
X186677822Y-132276134D01*
X186713062Y-132334929D01*
X186742370Y-132396896D01*
X186765463Y-132461436D01*
X186782119Y-132527929D01*
X186792177Y-132595735D01*
X186795540Y-132664200D01*
X186795540Y-140258800D01*
X186792177Y-140327265D01*
X186782119Y-140395071D01*
X186765463Y-140461564D01*
X186742370Y-140526104D01*
X186713062Y-140588071D01*
X186677822Y-140646866D01*
X186636988Y-140701924D01*
X186590954Y-140752714D01*
X186540164Y-140798748D01*
X186485106Y-140839582D01*
X186426311Y-140874822D01*
X186364344Y-140904130D01*
X186299804Y-140927223D01*
X186233311Y-140943879D01*
X186165505Y-140953937D01*
X186097040Y-140957300D01*
X184700040Y-140957300D01*
X184631575Y-140953937D01*
X184563769Y-140943879D01*
X184497276Y-140927223D01*
X184432736Y-140904130D01*
X184370769Y-140874822D01*
X184311974Y-140839582D01*
X184256916Y-140798748D01*
X184206126Y-140752714D01*
X184160092Y-140701924D01*
X184119258Y-140646866D01*
X184084018Y-140588071D01*
X184054710Y-140526104D01*
X184031617Y-140461564D01*
X184014961Y-140395071D01*
X184004903Y-140327265D01*
X184001540Y-140258800D01*
X184001540Y-132664200D01*
X184004903Y-132595735D01*
X184014961Y-132527929D01*
X184031617Y-132461436D01*
X184054710Y-132396896D01*
X184084018Y-132334929D01*
X184119258Y-132276134D01*
X184160092Y-132221076D01*
X184206126Y-132170286D01*
X184256916Y-132124252D01*
X184311974Y-132083418D01*
X184370769Y-132048178D01*
X184432736Y-132018870D01*
X184497276Y-131995777D01*
X184563769Y-131979121D01*
X184631575Y-131969063D01*
X184700040Y-131965700D01*
X186097040Y-131965700D01*
X186165505Y-131969063D01*
G37*
G04 #@! TD.AperFunction*
G04 #@! TA.AperFunction,ConnectorPad*
G36*
X182205505Y-131969063D02*
G01*
X182273311Y-131979121D01*
X182339804Y-131995777D01*
X182404344Y-132018870D01*
X182466311Y-132048178D01*
X182525106Y-132083418D01*
X182580164Y-132124252D01*
X182630954Y-132170286D01*
X182676988Y-132221076D01*
X182717822Y-132276134D01*
X182753062Y-132334929D01*
X182782370Y-132396896D01*
X182805463Y-132461436D01*
X182822119Y-132527929D01*
X182832177Y-132595735D01*
X182835540Y-132664200D01*
X182835540Y-140258800D01*
X182832177Y-140327265D01*
X182822119Y-140395071D01*
X182805463Y-140461564D01*
X182782370Y-140526104D01*
X182753062Y-140588071D01*
X182717822Y-140646866D01*
X182676988Y-140701924D01*
X182630954Y-140752714D01*
X182580164Y-140798748D01*
X182525106Y-140839582D01*
X182466311Y-140874822D01*
X182404344Y-140904130D01*
X182339804Y-140927223D01*
X182273311Y-140943879D01*
X182205505Y-140953937D01*
X182137040Y-140957300D01*
X180740040Y-140957300D01*
X180671575Y-140953937D01*
X180603769Y-140943879D01*
X180537276Y-140927223D01*
X180472736Y-140904130D01*
X180410769Y-140874822D01*
X180351974Y-140839582D01*
X180296916Y-140798748D01*
X180246126Y-140752714D01*
X180200092Y-140701924D01*
X180159258Y-140646866D01*
X180124018Y-140588071D01*
X180094710Y-140526104D01*
X180071617Y-140461564D01*
X180054961Y-140395071D01*
X180044903Y-140327265D01*
X180041540Y-140258800D01*
X180041540Y-132664200D01*
X180044903Y-132595735D01*
X180054961Y-132527929D01*
X180071617Y-132461436D01*
X180094710Y-132396896D01*
X180124018Y-132334929D01*
X180159258Y-132276134D01*
X180200092Y-132221076D01*
X180246126Y-132170286D01*
X180296916Y-132124252D01*
X180351974Y-132083418D01*
X180410769Y-132048178D01*
X180472736Y-132018870D01*
X180537276Y-131995777D01*
X180603769Y-131979121D01*
X180671575Y-131969063D01*
X180740040Y-131965700D01*
X182137040Y-131965700D01*
X182205505Y-131969063D01*
G37*
G04 #@! TD.AperFunction*
G04 #@! TA.AperFunction,ConnectorPad*
G36*
X178245505Y-131969063D02*
G01*
X178313311Y-131979121D01*
X178379804Y-131995777D01*
X178444344Y-132018870D01*
X178506311Y-132048178D01*
X178565106Y-132083418D01*
X178620164Y-132124252D01*
X178670954Y-132170286D01*
X178716988Y-132221076D01*
X178757822Y-132276134D01*
X178793062Y-132334929D01*
X178822370Y-132396896D01*
X178845463Y-132461436D01*
X178862119Y-132527929D01*
X178872177Y-132595735D01*
X178875540Y-132664200D01*
X178875540Y-140258800D01*
X178872177Y-140327265D01*
X178862119Y-140395071D01*
X178845463Y-140461564D01*
X178822370Y-140526104D01*
X178793062Y-140588071D01*
X178757822Y-140646866D01*
X178716988Y-140701924D01*
X178670954Y-140752714D01*
X178620164Y-140798748D01*
X178565106Y-140839582D01*
X178506311Y-140874822D01*
X178444344Y-140904130D01*
X178379804Y-140927223D01*
X178313311Y-140943879D01*
X178245505Y-140953937D01*
X178177040Y-140957300D01*
X176780040Y-140957300D01*
X176711575Y-140953937D01*
X176643769Y-140943879D01*
X176577276Y-140927223D01*
X176512736Y-140904130D01*
X176450769Y-140874822D01*
X176391974Y-140839582D01*
X176336916Y-140798748D01*
X176286126Y-140752714D01*
X176240092Y-140701924D01*
X176199258Y-140646866D01*
X176164018Y-140588071D01*
X176134710Y-140526104D01*
X176111617Y-140461564D01*
X176094961Y-140395071D01*
X176084903Y-140327265D01*
X176081540Y-140258800D01*
X176081540Y-132664200D01*
X176084903Y-132595735D01*
X176094961Y-132527929D01*
X176111617Y-132461436D01*
X176134710Y-132396896D01*
X176164018Y-132334929D01*
X176199258Y-132276134D01*
X176240092Y-132221076D01*
X176286126Y-132170286D01*
X176336916Y-132124252D01*
X176391974Y-132083418D01*
X176450769Y-132048178D01*
X176512736Y-132018870D01*
X176577276Y-131995777D01*
X176643769Y-131979121D01*
X176711575Y-131969063D01*
X176780040Y-131965700D01*
X178177040Y-131965700D01*
X178245505Y-131969063D01*
G37*
G04 #@! TD.AperFunction*
G04 #@! TA.AperFunction,ConnectorPad*
G36*
X174285505Y-131969063D02*
G01*
X174353311Y-131979121D01*
X174419804Y-131995777D01*
X174484344Y-132018870D01*
X174546311Y-132048178D01*
X174605106Y-132083418D01*
X174660164Y-132124252D01*
X174710954Y-132170286D01*
X174756988Y-132221076D01*
X174797822Y-132276134D01*
X174833062Y-132334929D01*
X174862370Y-132396896D01*
X174885463Y-132461436D01*
X174902119Y-132527929D01*
X174912177Y-132595735D01*
X174915540Y-132664200D01*
X174915540Y-140258800D01*
X174912177Y-140327265D01*
X174902119Y-140395071D01*
X174885463Y-140461564D01*
X174862370Y-140526104D01*
X174833062Y-140588071D01*
X174797822Y-140646866D01*
X174756988Y-140701924D01*
X174710954Y-140752714D01*
X174660164Y-140798748D01*
X174605106Y-140839582D01*
X174546311Y-140874822D01*
X174484344Y-140904130D01*
X174419804Y-140927223D01*
X174353311Y-140943879D01*
X174285505Y-140953937D01*
X174217040Y-140957300D01*
X172820040Y-140957300D01*
X172751575Y-140953937D01*
X172683769Y-140943879D01*
X172617276Y-140927223D01*
X172552736Y-140904130D01*
X172490769Y-140874822D01*
X172431974Y-140839582D01*
X172376916Y-140798748D01*
X172326126Y-140752714D01*
X172280092Y-140701924D01*
X172239258Y-140646866D01*
X172204018Y-140588071D01*
X172174710Y-140526104D01*
X172151617Y-140461564D01*
X172134961Y-140395071D01*
X172124903Y-140327265D01*
X172121540Y-140258800D01*
X172121540Y-132664200D01*
X172124903Y-132595735D01*
X172134961Y-132527929D01*
X172151617Y-132461436D01*
X172174710Y-132396896D01*
X172204018Y-132334929D01*
X172239258Y-132276134D01*
X172280092Y-132221076D01*
X172326126Y-132170286D01*
X172376916Y-132124252D01*
X172431974Y-132083418D01*
X172490769Y-132048178D01*
X172552736Y-132018870D01*
X172617276Y-131995777D01*
X172683769Y-131979121D01*
X172751575Y-131969063D01*
X172820040Y-131965700D01*
X174217040Y-131965700D01*
X174285505Y-131969063D01*
G37*
G04 #@! TD.AperFunction*
G04 #@! TA.AperFunction,ConnectorPad*
G36*
X170325505Y-131969063D02*
G01*
X170393311Y-131979121D01*
X170459804Y-131995777D01*
X170524344Y-132018870D01*
X170586311Y-132048178D01*
X170645106Y-132083418D01*
X170700164Y-132124252D01*
X170750954Y-132170286D01*
X170796988Y-132221076D01*
X170837822Y-132276134D01*
X170873062Y-132334929D01*
X170902370Y-132396896D01*
X170925463Y-132461436D01*
X170942119Y-132527929D01*
X170952177Y-132595735D01*
X170955540Y-132664200D01*
X170955540Y-140258800D01*
X170952177Y-140327265D01*
X170942119Y-140395071D01*
X170925463Y-140461564D01*
X170902370Y-140526104D01*
X170873062Y-140588071D01*
X170837822Y-140646866D01*
X170796988Y-140701924D01*
X170750954Y-140752714D01*
X170700164Y-140798748D01*
X170645106Y-140839582D01*
X170586311Y-140874822D01*
X170524344Y-140904130D01*
X170459804Y-140927223D01*
X170393311Y-140943879D01*
X170325505Y-140953937D01*
X170257040Y-140957300D01*
X168860040Y-140957300D01*
X168791575Y-140953937D01*
X168723769Y-140943879D01*
X168657276Y-140927223D01*
X168592736Y-140904130D01*
X168530769Y-140874822D01*
X168471974Y-140839582D01*
X168416916Y-140798748D01*
X168366126Y-140752714D01*
X168320092Y-140701924D01*
X168279258Y-140646866D01*
X168244018Y-140588071D01*
X168214710Y-140526104D01*
X168191617Y-140461564D01*
X168174961Y-140395071D01*
X168164903Y-140327265D01*
X168161540Y-140258800D01*
X168161540Y-132664200D01*
X168164903Y-132595735D01*
X168174961Y-132527929D01*
X168191617Y-132461436D01*
X168214710Y-132396896D01*
X168244018Y-132334929D01*
X168279258Y-132276134D01*
X168320092Y-132221076D01*
X168366126Y-132170286D01*
X168416916Y-132124252D01*
X168471974Y-132083418D01*
X168530769Y-132048178D01*
X168592736Y-132018870D01*
X168657276Y-131995777D01*
X168723769Y-131979121D01*
X168791575Y-131969063D01*
X168860040Y-131965700D01*
X170257040Y-131965700D01*
X170325505Y-131969063D01*
G37*
G04 #@! TD.AperFunction*
G04 #@! TA.AperFunction,ConnectorPad*
G36*
X166365505Y-131969063D02*
G01*
X166433311Y-131979121D01*
X166499804Y-131995777D01*
X166564344Y-132018870D01*
X166626311Y-132048178D01*
X166685106Y-132083418D01*
X166740164Y-132124252D01*
X166790954Y-132170286D01*
X166836988Y-132221076D01*
X166877822Y-132276134D01*
X166913062Y-132334929D01*
X166942370Y-132396896D01*
X166965463Y-132461436D01*
X166982119Y-132527929D01*
X166992177Y-132595735D01*
X166995540Y-132664200D01*
X166995540Y-140258800D01*
X166992177Y-140327265D01*
X166982119Y-140395071D01*
X166965463Y-140461564D01*
X166942370Y-140526104D01*
X166913062Y-140588071D01*
X166877822Y-140646866D01*
X166836988Y-140701924D01*
X166790954Y-140752714D01*
X166740164Y-140798748D01*
X166685106Y-140839582D01*
X166626311Y-140874822D01*
X166564344Y-140904130D01*
X166499804Y-140927223D01*
X166433311Y-140943879D01*
X166365505Y-140953937D01*
X166297040Y-140957300D01*
X164900040Y-140957300D01*
X164831575Y-140953937D01*
X164763769Y-140943879D01*
X164697276Y-140927223D01*
X164632736Y-140904130D01*
X164570769Y-140874822D01*
X164511974Y-140839582D01*
X164456916Y-140798748D01*
X164406126Y-140752714D01*
X164360092Y-140701924D01*
X164319258Y-140646866D01*
X164284018Y-140588071D01*
X164254710Y-140526104D01*
X164231617Y-140461564D01*
X164214961Y-140395071D01*
X164204903Y-140327265D01*
X164201540Y-140258800D01*
X164201540Y-132664200D01*
X164204903Y-132595735D01*
X164214961Y-132527929D01*
X164231617Y-132461436D01*
X164254710Y-132396896D01*
X164284018Y-132334929D01*
X164319258Y-132276134D01*
X164360092Y-132221076D01*
X164406126Y-132170286D01*
X164456916Y-132124252D01*
X164511974Y-132083418D01*
X164570769Y-132048178D01*
X164632736Y-132018870D01*
X164697276Y-131995777D01*
X164763769Y-131979121D01*
X164831575Y-131969063D01*
X164900040Y-131965700D01*
X166297040Y-131965700D01*
X166365505Y-131969063D01*
G37*
G04 #@! TD.AperFunction*
G04 #@! TA.AperFunction,ConnectorPad*
G36*
X162405505Y-131969063D02*
G01*
X162473311Y-131979121D01*
X162539804Y-131995777D01*
X162604344Y-132018870D01*
X162666311Y-132048178D01*
X162725106Y-132083418D01*
X162780164Y-132124252D01*
X162830954Y-132170286D01*
X162876988Y-132221076D01*
X162917822Y-132276134D01*
X162953062Y-132334929D01*
X162982370Y-132396896D01*
X163005463Y-132461436D01*
X163022119Y-132527929D01*
X163032177Y-132595735D01*
X163035540Y-132664200D01*
X163035540Y-140258800D01*
X163032177Y-140327265D01*
X163022119Y-140395071D01*
X163005463Y-140461564D01*
X162982370Y-140526104D01*
X162953062Y-140588071D01*
X162917822Y-140646866D01*
X162876988Y-140701924D01*
X162830954Y-140752714D01*
X162780164Y-140798748D01*
X162725106Y-140839582D01*
X162666311Y-140874822D01*
X162604344Y-140904130D01*
X162539804Y-140927223D01*
X162473311Y-140943879D01*
X162405505Y-140953937D01*
X162337040Y-140957300D01*
X160940040Y-140957300D01*
X160871575Y-140953937D01*
X160803769Y-140943879D01*
X160737276Y-140927223D01*
X160672736Y-140904130D01*
X160610769Y-140874822D01*
X160551974Y-140839582D01*
X160496916Y-140798748D01*
X160446126Y-140752714D01*
X160400092Y-140701924D01*
X160359258Y-140646866D01*
X160324018Y-140588071D01*
X160294710Y-140526104D01*
X160271617Y-140461564D01*
X160254961Y-140395071D01*
X160244903Y-140327265D01*
X160241540Y-140258800D01*
X160241540Y-132664200D01*
X160244903Y-132595735D01*
X160254961Y-132527929D01*
X160271617Y-132461436D01*
X160294710Y-132396896D01*
X160324018Y-132334929D01*
X160359258Y-132276134D01*
X160400092Y-132221076D01*
X160446126Y-132170286D01*
X160496916Y-132124252D01*
X160551974Y-132083418D01*
X160610769Y-132048178D01*
X160672736Y-132018870D01*
X160737276Y-131995777D01*
X160803769Y-131979121D01*
X160871575Y-131969063D01*
X160940040Y-131965700D01*
X162337040Y-131965700D01*
X162405505Y-131969063D01*
G37*
G04 #@! TD.AperFunction*
G04 #@! TA.AperFunction,ConnectorPad*
G36*
X158445505Y-131969063D02*
G01*
X158513311Y-131979121D01*
X158579804Y-131995777D01*
X158644344Y-132018870D01*
X158706311Y-132048178D01*
X158765106Y-132083418D01*
X158820164Y-132124252D01*
X158870954Y-132170286D01*
X158916988Y-132221076D01*
X158957822Y-132276134D01*
X158993062Y-132334929D01*
X159022370Y-132396896D01*
X159045463Y-132461436D01*
X159062119Y-132527929D01*
X159072177Y-132595735D01*
X159075540Y-132664200D01*
X159075540Y-140258800D01*
X159072177Y-140327265D01*
X159062119Y-140395071D01*
X159045463Y-140461564D01*
X159022370Y-140526104D01*
X158993062Y-140588071D01*
X158957822Y-140646866D01*
X158916988Y-140701924D01*
X158870954Y-140752714D01*
X158820164Y-140798748D01*
X158765106Y-140839582D01*
X158706311Y-140874822D01*
X158644344Y-140904130D01*
X158579804Y-140927223D01*
X158513311Y-140943879D01*
X158445505Y-140953937D01*
X158377040Y-140957300D01*
X156980040Y-140957300D01*
X156911575Y-140953937D01*
X156843769Y-140943879D01*
X156777276Y-140927223D01*
X156712736Y-140904130D01*
X156650769Y-140874822D01*
X156591974Y-140839582D01*
X156536916Y-140798748D01*
X156486126Y-140752714D01*
X156440092Y-140701924D01*
X156399258Y-140646866D01*
X156364018Y-140588071D01*
X156334710Y-140526104D01*
X156311617Y-140461564D01*
X156294961Y-140395071D01*
X156284903Y-140327265D01*
X156281540Y-140258800D01*
X156281540Y-132664200D01*
X156284903Y-132595735D01*
X156294961Y-132527929D01*
X156311617Y-132461436D01*
X156334710Y-132396896D01*
X156364018Y-132334929D01*
X156399258Y-132276134D01*
X156440092Y-132221076D01*
X156486126Y-132170286D01*
X156536916Y-132124252D01*
X156591974Y-132083418D01*
X156650769Y-132048178D01*
X156712736Y-132018870D01*
X156777276Y-131995777D01*
X156843769Y-131979121D01*
X156911575Y-131969063D01*
X156980040Y-131965700D01*
X158377040Y-131965700D01*
X158445505Y-131969063D01*
G37*
G04 #@! TD.AperFunction*
G04 #@! TA.AperFunction,ConnectorPad*
G36*
X154485505Y-131969063D02*
G01*
X154553311Y-131979121D01*
X154619804Y-131995777D01*
X154684344Y-132018870D01*
X154746311Y-132048178D01*
X154805106Y-132083418D01*
X154860164Y-132124252D01*
X154910954Y-132170286D01*
X154956988Y-132221076D01*
X154997822Y-132276134D01*
X155033062Y-132334929D01*
X155062370Y-132396896D01*
X155085463Y-132461436D01*
X155102119Y-132527929D01*
X155112177Y-132595735D01*
X155115540Y-132664200D01*
X155115540Y-140258800D01*
X155112177Y-140327265D01*
X155102119Y-140395071D01*
X155085463Y-140461564D01*
X155062370Y-140526104D01*
X155033062Y-140588071D01*
X154997822Y-140646866D01*
X154956988Y-140701924D01*
X154910954Y-140752714D01*
X154860164Y-140798748D01*
X154805106Y-140839582D01*
X154746311Y-140874822D01*
X154684344Y-140904130D01*
X154619804Y-140927223D01*
X154553311Y-140943879D01*
X154485505Y-140953937D01*
X154417040Y-140957300D01*
X153020040Y-140957300D01*
X152951575Y-140953937D01*
X152883769Y-140943879D01*
X152817276Y-140927223D01*
X152752736Y-140904130D01*
X152690769Y-140874822D01*
X152631974Y-140839582D01*
X152576916Y-140798748D01*
X152526126Y-140752714D01*
X152480092Y-140701924D01*
X152439258Y-140646866D01*
X152404018Y-140588071D01*
X152374710Y-140526104D01*
X152351617Y-140461564D01*
X152334961Y-140395071D01*
X152324903Y-140327265D01*
X152321540Y-140258800D01*
X152321540Y-132664200D01*
X152324903Y-132595735D01*
X152334961Y-132527929D01*
X152351617Y-132461436D01*
X152374710Y-132396896D01*
X152404018Y-132334929D01*
X152439258Y-132276134D01*
X152480092Y-132221076D01*
X152526126Y-132170286D01*
X152576916Y-132124252D01*
X152631974Y-132083418D01*
X152690769Y-132048178D01*
X152752736Y-132018870D01*
X152817276Y-131995777D01*
X152883769Y-131979121D01*
X152951575Y-131969063D01*
X153020040Y-131965700D01*
X154417040Y-131965700D01*
X154485505Y-131969063D01*
G37*
G04 #@! TD.AperFunction*
G04 #@! TA.AperFunction,ConnectorPad*
G36*
X150525505Y-131969063D02*
G01*
X150593311Y-131979121D01*
X150659804Y-131995777D01*
X150724344Y-132018870D01*
X150786311Y-132048178D01*
X150845106Y-132083418D01*
X150900164Y-132124252D01*
X150950954Y-132170286D01*
X150996988Y-132221076D01*
X151037822Y-132276134D01*
X151073062Y-132334929D01*
X151102370Y-132396896D01*
X151125463Y-132461436D01*
X151142119Y-132527929D01*
X151152177Y-132595735D01*
X151155540Y-132664200D01*
X151155540Y-140258800D01*
X151152177Y-140327265D01*
X151142119Y-140395071D01*
X151125463Y-140461564D01*
X151102370Y-140526104D01*
X151073062Y-140588071D01*
X151037822Y-140646866D01*
X150996988Y-140701924D01*
X150950954Y-140752714D01*
X150900164Y-140798748D01*
X150845106Y-140839582D01*
X150786311Y-140874822D01*
X150724344Y-140904130D01*
X150659804Y-140927223D01*
X150593311Y-140943879D01*
X150525505Y-140953937D01*
X150457040Y-140957300D01*
X149060040Y-140957300D01*
X148991575Y-140953937D01*
X148923769Y-140943879D01*
X148857276Y-140927223D01*
X148792736Y-140904130D01*
X148730769Y-140874822D01*
X148671974Y-140839582D01*
X148616916Y-140798748D01*
X148566126Y-140752714D01*
X148520092Y-140701924D01*
X148479258Y-140646866D01*
X148444018Y-140588071D01*
X148414710Y-140526104D01*
X148391617Y-140461564D01*
X148374961Y-140395071D01*
X148364903Y-140327265D01*
X148361540Y-140258800D01*
X148361540Y-132664200D01*
X148364903Y-132595735D01*
X148374961Y-132527929D01*
X148391617Y-132461436D01*
X148414710Y-132396896D01*
X148444018Y-132334929D01*
X148479258Y-132276134D01*
X148520092Y-132221076D01*
X148566126Y-132170286D01*
X148616916Y-132124252D01*
X148671974Y-132083418D01*
X148730769Y-132048178D01*
X148792736Y-132018870D01*
X148857276Y-131995777D01*
X148923769Y-131979121D01*
X148991575Y-131969063D01*
X149060040Y-131965700D01*
X150457040Y-131965700D01*
X150525505Y-131969063D01*
G37*
G04 #@! TD.AperFunction*
G04 #@! TA.AperFunction,ConnectorPad*
G36*
X146565505Y-131969063D02*
G01*
X146633311Y-131979121D01*
X146699804Y-131995777D01*
X146764344Y-132018870D01*
X146826311Y-132048178D01*
X146885106Y-132083418D01*
X146940164Y-132124252D01*
X146990954Y-132170286D01*
X147036988Y-132221076D01*
X147077822Y-132276134D01*
X147113062Y-132334929D01*
X147142370Y-132396896D01*
X147165463Y-132461436D01*
X147182119Y-132527929D01*
X147192177Y-132595735D01*
X147195540Y-132664200D01*
X147195540Y-140258800D01*
X147192177Y-140327265D01*
X147182119Y-140395071D01*
X147165463Y-140461564D01*
X147142370Y-140526104D01*
X147113062Y-140588071D01*
X147077822Y-140646866D01*
X147036988Y-140701924D01*
X146990954Y-140752714D01*
X146940164Y-140798748D01*
X146885106Y-140839582D01*
X146826311Y-140874822D01*
X146764344Y-140904130D01*
X146699804Y-140927223D01*
X146633311Y-140943879D01*
X146565505Y-140953937D01*
X146497040Y-140957300D01*
X145100040Y-140957300D01*
X145031575Y-140953937D01*
X144963769Y-140943879D01*
X144897276Y-140927223D01*
X144832736Y-140904130D01*
X144770769Y-140874822D01*
X144711974Y-140839582D01*
X144656916Y-140798748D01*
X144606126Y-140752714D01*
X144560092Y-140701924D01*
X144519258Y-140646866D01*
X144484018Y-140588071D01*
X144454710Y-140526104D01*
X144431617Y-140461564D01*
X144414961Y-140395071D01*
X144404903Y-140327265D01*
X144401540Y-140258800D01*
X144401540Y-132664200D01*
X144404903Y-132595735D01*
X144414961Y-132527929D01*
X144431617Y-132461436D01*
X144454710Y-132396896D01*
X144484018Y-132334929D01*
X144519258Y-132276134D01*
X144560092Y-132221076D01*
X144606126Y-132170286D01*
X144656916Y-132124252D01*
X144711974Y-132083418D01*
X144770769Y-132048178D01*
X144832736Y-132018870D01*
X144897276Y-131995777D01*
X144963769Y-131979121D01*
X145031575Y-131969063D01*
X145100040Y-131965700D01*
X146497040Y-131965700D01*
X146565505Y-131969063D01*
G37*
G04 #@! TD.AperFunction*
G04 #@! TA.AperFunction,ConnectorPad*
G36*
X142605505Y-131969063D02*
G01*
X142673311Y-131979121D01*
X142739804Y-131995777D01*
X142804344Y-132018870D01*
X142866311Y-132048178D01*
X142925106Y-132083418D01*
X142980164Y-132124252D01*
X143030954Y-132170286D01*
X143076988Y-132221076D01*
X143117822Y-132276134D01*
X143153062Y-132334929D01*
X143182370Y-132396896D01*
X143205463Y-132461436D01*
X143222119Y-132527929D01*
X143232177Y-132595735D01*
X143235540Y-132664200D01*
X143235540Y-140258800D01*
X143232177Y-140327265D01*
X143222119Y-140395071D01*
X143205463Y-140461564D01*
X143182370Y-140526104D01*
X143153062Y-140588071D01*
X143117822Y-140646866D01*
X143076988Y-140701924D01*
X143030954Y-140752714D01*
X142980164Y-140798748D01*
X142925106Y-140839582D01*
X142866311Y-140874822D01*
X142804344Y-140904130D01*
X142739804Y-140927223D01*
X142673311Y-140943879D01*
X142605505Y-140953937D01*
X142537040Y-140957300D01*
X141140040Y-140957300D01*
X141071575Y-140953937D01*
X141003769Y-140943879D01*
X140937276Y-140927223D01*
X140872736Y-140904130D01*
X140810769Y-140874822D01*
X140751974Y-140839582D01*
X140696916Y-140798748D01*
X140646126Y-140752714D01*
X140600092Y-140701924D01*
X140559258Y-140646866D01*
X140524018Y-140588071D01*
X140494710Y-140526104D01*
X140471617Y-140461564D01*
X140454961Y-140395071D01*
X140444903Y-140327265D01*
X140441540Y-140258800D01*
X140441540Y-132664200D01*
X140444903Y-132595735D01*
X140454961Y-132527929D01*
X140471617Y-132461436D01*
X140494710Y-132396896D01*
X140524018Y-132334929D01*
X140559258Y-132276134D01*
X140600092Y-132221076D01*
X140646126Y-132170286D01*
X140696916Y-132124252D01*
X140751974Y-132083418D01*
X140810769Y-132048178D01*
X140872736Y-132018870D01*
X140937276Y-131995777D01*
X141003769Y-131979121D01*
X141071575Y-131969063D01*
X141140040Y-131965700D01*
X142537040Y-131965700D01*
X142605505Y-131969063D01*
G37*
G04 #@! TD.AperFunction*
G04 #@! TA.AperFunction,ConnectorPad*
G36*
X138645505Y-131969063D02*
G01*
X138713311Y-131979121D01*
X138779804Y-131995777D01*
X138844344Y-132018870D01*
X138906311Y-132048178D01*
X138965106Y-132083418D01*
X139020164Y-132124252D01*
X139070954Y-132170286D01*
X139116988Y-132221076D01*
X139157822Y-132276134D01*
X139193062Y-132334929D01*
X139222370Y-132396896D01*
X139245463Y-132461436D01*
X139262119Y-132527929D01*
X139272177Y-132595735D01*
X139275540Y-132664200D01*
X139275540Y-140258800D01*
X139272177Y-140327265D01*
X139262119Y-140395071D01*
X139245463Y-140461564D01*
X139222370Y-140526104D01*
X139193062Y-140588071D01*
X139157822Y-140646866D01*
X139116988Y-140701924D01*
X139070954Y-140752714D01*
X139020164Y-140798748D01*
X138965106Y-140839582D01*
X138906311Y-140874822D01*
X138844344Y-140904130D01*
X138779804Y-140927223D01*
X138713311Y-140943879D01*
X138645505Y-140953937D01*
X138577040Y-140957300D01*
X137180040Y-140957300D01*
X137111575Y-140953937D01*
X137043769Y-140943879D01*
X136977276Y-140927223D01*
X136912736Y-140904130D01*
X136850769Y-140874822D01*
X136791974Y-140839582D01*
X136736916Y-140798748D01*
X136686126Y-140752714D01*
X136640092Y-140701924D01*
X136599258Y-140646866D01*
X136564018Y-140588071D01*
X136534710Y-140526104D01*
X136511617Y-140461564D01*
X136494961Y-140395071D01*
X136484903Y-140327265D01*
X136481540Y-140258800D01*
X136481540Y-132664200D01*
X136484903Y-132595735D01*
X136494961Y-132527929D01*
X136511617Y-132461436D01*
X136534710Y-132396896D01*
X136564018Y-132334929D01*
X136599258Y-132276134D01*
X136640092Y-132221076D01*
X136686126Y-132170286D01*
X136736916Y-132124252D01*
X136791974Y-132083418D01*
X136850769Y-132048178D01*
X136912736Y-132018870D01*
X136977276Y-131995777D01*
X137043769Y-131979121D01*
X137111575Y-131969063D01*
X137180040Y-131965700D01*
X138577040Y-131965700D01*
X138645505Y-131969063D01*
G37*
G04 #@! TD.AperFunction*
G04 #@! TA.AperFunction,ConnectorPad*
G36*
X134685505Y-131969063D02*
G01*
X134753311Y-131979121D01*
X134819804Y-131995777D01*
X134884344Y-132018870D01*
X134946311Y-132048178D01*
X135005106Y-132083418D01*
X135060164Y-132124252D01*
X135110954Y-132170286D01*
X135156988Y-132221076D01*
X135197822Y-132276134D01*
X135233062Y-132334929D01*
X135262370Y-132396896D01*
X135285463Y-132461436D01*
X135302119Y-132527929D01*
X135312177Y-132595735D01*
X135315540Y-132664200D01*
X135315540Y-140258800D01*
X135312177Y-140327265D01*
X135302119Y-140395071D01*
X135285463Y-140461564D01*
X135262370Y-140526104D01*
X135233062Y-140588071D01*
X135197822Y-140646866D01*
X135156988Y-140701924D01*
X135110954Y-140752714D01*
X135060164Y-140798748D01*
X135005106Y-140839582D01*
X134946311Y-140874822D01*
X134884344Y-140904130D01*
X134819804Y-140927223D01*
X134753311Y-140943879D01*
X134685505Y-140953937D01*
X134617040Y-140957300D01*
X133220040Y-140957300D01*
X133151575Y-140953937D01*
X133083769Y-140943879D01*
X133017276Y-140927223D01*
X132952736Y-140904130D01*
X132890769Y-140874822D01*
X132831974Y-140839582D01*
X132776916Y-140798748D01*
X132726126Y-140752714D01*
X132680092Y-140701924D01*
X132639258Y-140646866D01*
X132604018Y-140588071D01*
X132574710Y-140526104D01*
X132551617Y-140461564D01*
X132534961Y-140395071D01*
X132524903Y-140327265D01*
X132521540Y-140258800D01*
X132521540Y-132664200D01*
X132524903Y-132595735D01*
X132534961Y-132527929D01*
X132551617Y-132461436D01*
X132574710Y-132396896D01*
X132604018Y-132334929D01*
X132639258Y-132276134D01*
X132680092Y-132221076D01*
X132726126Y-132170286D01*
X132776916Y-132124252D01*
X132831974Y-132083418D01*
X132890769Y-132048178D01*
X132952736Y-132018870D01*
X133017276Y-131995777D01*
X133083769Y-131979121D01*
X133151575Y-131969063D01*
X133220040Y-131965700D01*
X134617040Y-131965700D01*
X134685505Y-131969063D01*
G37*
G04 #@! TD.AperFunction*
G04 #@! TA.AperFunction,ConnectorPad*
G36*
X130725505Y-131969063D02*
G01*
X130793311Y-131979121D01*
X130859804Y-131995777D01*
X130924344Y-132018870D01*
X130986311Y-132048178D01*
X131045106Y-132083418D01*
X131100164Y-132124252D01*
X131150954Y-132170286D01*
X131196988Y-132221076D01*
X131237822Y-132276134D01*
X131273062Y-132334929D01*
X131302370Y-132396896D01*
X131325463Y-132461436D01*
X131342119Y-132527929D01*
X131352177Y-132595735D01*
X131355540Y-132664200D01*
X131355540Y-140258800D01*
X131352177Y-140327265D01*
X131342119Y-140395071D01*
X131325463Y-140461564D01*
X131302370Y-140526104D01*
X131273062Y-140588071D01*
X131237822Y-140646866D01*
X131196988Y-140701924D01*
X131150954Y-140752714D01*
X131100164Y-140798748D01*
X131045106Y-140839582D01*
X130986311Y-140874822D01*
X130924344Y-140904130D01*
X130859804Y-140927223D01*
X130793311Y-140943879D01*
X130725505Y-140953937D01*
X130657040Y-140957300D01*
X129260040Y-140957300D01*
X129191575Y-140953937D01*
X129123769Y-140943879D01*
X129057276Y-140927223D01*
X128992736Y-140904130D01*
X128930769Y-140874822D01*
X128871974Y-140839582D01*
X128816916Y-140798748D01*
X128766126Y-140752714D01*
X128720092Y-140701924D01*
X128679258Y-140646866D01*
X128644018Y-140588071D01*
X128614710Y-140526104D01*
X128591617Y-140461564D01*
X128574961Y-140395071D01*
X128564903Y-140327265D01*
X128561540Y-140258800D01*
X128561540Y-132664200D01*
X128564903Y-132595735D01*
X128574961Y-132527929D01*
X128591617Y-132461436D01*
X128614710Y-132396896D01*
X128644018Y-132334929D01*
X128679258Y-132276134D01*
X128720092Y-132221076D01*
X128766126Y-132170286D01*
X128816916Y-132124252D01*
X128871974Y-132083418D01*
X128930769Y-132048178D01*
X128992736Y-132018870D01*
X129057276Y-131995777D01*
X129123769Y-131979121D01*
X129191575Y-131969063D01*
X129260040Y-131965700D01*
X130657040Y-131965700D01*
X130725505Y-131969063D01*
G37*
G04 #@! TD.AperFunction*
G04 #@! TA.AperFunction,ConnectorPad*
G36*
X126765505Y-131969063D02*
G01*
X126833311Y-131979121D01*
X126899804Y-131995777D01*
X126964344Y-132018870D01*
X127026311Y-132048178D01*
X127085106Y-132083418D01*
X127140164Y-132124252D01*
X127190954Y-132170286D01*
X127236988Y-132221076D01*
X127277822Y-132276134D01*
X127313062Y-132334929D01*
X127342370Y-132396896D01*
X127365463Y-132461436D01*
X127382119Y-132527929D01*
X127392177Y-132595735D01*
X127395540Y-132664200D01*
X127395540Y-140258800D01*
X127392177Y-140327265D01*
X127382119Y-140395071D01*
X127365463Y-140461564D01*
X127342370Y-140526104D01*
X127313062Y-140588071D01*
X127277822Y-140646866D01*
X127236988Y-140701924D01*
X127190954Y-140752714D01*
X127140164Y-140798748D01*
X127085106Y-140839582D01*
X127026311Y-140874822D01*
X126964344Y-140904130D01*
X126899804Y-140927223D01*
X126833311Y-140943879D01*
X126765505Y-140953937D01*
X126697040Y-140957300D01*
X125300040Y-140957300D01*
X125231575Y-140953937D01*
X125163769Y-140943879D01*
X125097276Y-140927223D01*
X125032736Y-140904130D01*
X124970769Y-140874822D01*
X124911974Y-140839582D01*
X124856916Y-140798748D01*
X124806126Y-140752714D01*
X124760092Y-140701924D01*
X124719258Y-140646866D01*
X124684018Y-140588071D01*
X124654710Y-140526104D01*
X124631617Y-140461564D01*
X124614961Y-140395071D01*
X124604903Y-140327265D01*
X124601540Y-140258800D01*
X124601540Y-132664200D01*
X124604903Y-132595735D01*
X124614961Y-132527929D01*
X124631617Y-132461436D01*
X124654710Y-132396896D01*
X124684018Y-132334929D01*
X124719258Y-132276134D01*
X124760092Y-132221076D01*
X124806126Y-132170286D01*
X124856916Y-132124252D01*
X124911974Y-132083418D01*
X124970769Y-132048178D01*
X125032736Y-132018870D01*
X125097276Y-131995777D01*
X125163769Y-131979121D01*
X125231575Y-131969063D01*
X125300040Y-131965700D01*
X126697040Y-131965700D01*
X126765505Y-131969063D01*
G37*
G04 #@! TD.AperFunction*
G04 #@! TA.AperFunction,ConnectorPad*
G36*
X122805505Y-131969063D02*
G01*
X122873311Y-131979121D01*
X122939804Y-131995777D01*
X123004344Y-132018870D01*
X123066311Y-132048178D01*
X123125106Y-132083418D01*
X123180164Y-132124252D01*
X123230954Y-132170286D01*
X123276988Y-132221076D01*
X123317822Y-132276134D01*
X123353062Y-132334929D01*
X123382370Y-132396896D01*
X123405463Y-132461436D01*
X123422119Y-132527929D01*
X123432177Y-132595735D01*
X123435540Y-132664200D01*
X123435540Y-140258800D01*
X123432177Y-140327265D01*
X123422119Y-140395071D01*
X123405463Y-140461564D01*
X123382370Y-140526104D01*
X123353062Y-140588071D01*
X123317822Y-140646866D01*
X123276988Y-140701924D01*
X123230954Y-140752714D01*
X123180164Y-140798748D01*
X123125106Y-140839582D01*
X123066311Y-140874822D01*
X123004344Y-140904130D01*
X122939804Y-140927223D01*
X122873311Y-140943879D01*
X122805505Y-140953937D01*
X122737040Y-140957300D01*
X121340040Y-140957300D01*
X121271575Y-140953937D01*
X121203769Y-140943879D01*
X121137276Y-140927223D01*
X121072736Y-140904130D01*
X121010769Y-140874822D01*
X120951974Y-140839582D01*
X120896916Y-140798748D01*
X120846126Y-140752714D01*
X120800092Y-140701924D01*
X120759258Y-140646866D01*
X120724018Y-140588071D01*
X120694710Y-140526104D01*
X120671617Y-140461564D01*
X120654961Y-140395071D01*
X120644903Y-140327265D01*
X120641540Y-140258800D01*
X120641540Y-132664200D01*
X120644903Y-132595735D01*
X120654961Y-132527929D01*
X120671617Y-132461436D01*
X120694710Y-132396896D01*
X120724018Y-132334929D01*
X120759258Y-132276134D01*
X120800092Y-132221076D01*
X120846126Y-132170286D01*
X120896916Y-132124252D01*
X120951974Y-132083418D01*
X121010769Y-132048178D01*
X121072736Y-132018870D01*
X121137276Y-131995777D01*
X121203769Y-131979121D01*
X121271575Y-131969063D01*
X121340040Y-131965700D01*
X122737040Y-131965700D01*
X122805505Y-131969063D01*
G37*
G04 #@! TD.AperFunction*
G04 #@! TA.AperFunction,ConnectorPad*
G36*
X118845505Y-131969063D02*
G01*
X118913311Y-131979121D01*
X118979804Y-131995777D01*
X119044344Y-132018870D01*
X119106311Y-132048178D01*
X119165106Y-132083418D01*
X119220164Y-132124252D01*
X119270954Y-132170286D01*
X119316988Y-132221076D01*
X119357822Y-132276134D01*
X119393062Y-132334929D01*
X119422370Y-132396896D01*
X119445463Y-132461436D01*
X119462119Y-132527929D01*
X119472177Y-132595735D01*
X119475540Y-132664200D01*
X119475540Y-140258800D01*
X119472177Y-140327265D01*
X119462119Y-140395071D01*
X119445463Y-140461564D01*
X119422370Y-140526104D01*
X119393062Y-140588071D01*
X119357822Y-140646866D01*
X119316988Y-140701924D01*
X119270954Y-140752714D01*
X119220164Y-140798748D01*
X119165106Y-140839582D01*
X119106311Y-140874822D01*
X119044344Y-140904130D01*
X118979804Y-140927223D01*
X118913311Y-140943879D01*
X118845505Y-140953937D01*
X118777040Y-140957300D01*
X117380040Y-140957300D01*
X117311575Y-140953937D01*
X117243769Y-140943879D01*
X117177276Y-140927223D01*
X117112736Y-140904130D01*
X117050769Y-140874822D01*
X116991974Y-140839582D01*
X116936916Y-140798748D01*
X116886126Y-140752714D01*
X116840092Y-140701924D01*
X116799258Y-140646866D01*
X116764018Y-140588071D01*
X116734710Y-140526104D01*
X116711617Y-140461564D01*
X116694961Y-140395071D01*
X116684903Y-140327265D01*
X116681540Y-140258800D01*
X116681540Y-132664200D01*
X116684903Y-132595735D01*
X116694961Y-132527929D01*
X116711617Y-132461436D01*
X116734710Y-132396896D01*
X116764018Y-132334929D01*
X116799258Y-132276134D01*
X116840092Y-132221076D01*
X116886126Y-132170286D01*
X116936916Y-132124252D01*
X116991974Y-132083418D01*
X117050769Y-132048178D01*
X117112736Y-132018870D01*
X117177276Y-131995777D01*
X117243769Y-131979121D01*
X117311575Y-131969063D01*
X117380040Y-131965700D01*
X118777040Y-131965700D01*
X118845505Y-131969063D01*
G37*
G04 #@! TD.AperFunction*
G04 #@! TA.AperFunction,ConnectorPad*
G36*
X114885505Y-131969063D02*
G01*
X114953311Y-131979121D01*
X115019804Y-131995777D01*
X115084344Y-132018870D01*
X115146311Y-132048178D01*
X115205106Y-132083418D01*
X115260164Y-132124252D01*
X115310954Y-132170286D01*
X115356988Y-132221076D01*
X115397822Y-132276134D01*
X115433062Y-132334929D01*
X115462370Y-132396896D01*
X115485463Y-132461436D01*
X115502119Y-132527929D01*
X115512177Y-132595735D01*
X115515540Y-132664200D01*
X115515540Y-140258800D01*
X115512177Y-140327265D01*
X115502119Y-140395071D01*
X115485463Y-140461564D01*
X115462370Y-140526104D01*
X115433062Y-140588071D01*
X115397822Y-140646866D01*
X115356988Y-140701924D01*
X115310954Y-140752714D01*
X115260164Y-140798748D01*
X115205106Y-140839582D01*
X115146311Y-140874822D01*
X115084344Y-140904130D01*
X115019804Y-140927223D01*
X114953311Y-140943879D01*
X114885505Y-140953937D01*
X114817040Y-140957300D01*
X113420040Y-140957300D01*
X113351575Y-140953937D01*
X113283769Y-140943879D01*
X113217276Y-140927223D01*
X113152736Y-140904130D01*
X113090769Y-140874822D01*
X113031974Y-140839582D01*
X112976916Y-140798748D01*
X112926126Y-140752714D01*
X112880092Y-140701924D01*
X112839258Y-140646866D01*
X112804018Y-140588071D01*
X112774710Y-140526104D01*
X112751617Y-140461564D01*
X112734961Y-140395071D01*
X112724903Y-140327265D01*
X112721540Y-140258800D01*
X112721540Y-132664200D01*
X112724903Y-132595735D01*
X112734961Y-132527929D01*
X112751617Y-132461436D01*
X112774710Y-132396896D01*
X112804018Y-132334929D01*
X112839258Y-132276134D01*
X112880092Y-132221076D01*
X112926126Y-132170286D01*
X112976916Y-132124252D01*
X113031974Y-132083418D01*
X113090769Y-132048178D01*
X113152736Y-132018870D01*
X113217276Y-131995777D01*
X113283769Y-131979121D01*
X113351575Y-131969063D01*
X113420040Y-131965700D01*
X114817040Y-131965700D01*
X114885505Y-131969063D01*
G37*
G04 #@! TD.AperFunction*
G04 #@! TA.AperFunction,ConnectorPad*
G36*
X110925505Y-131969063D02*
G01*
X110993311Y-131979121D01*
X111059804Y-131995777D01*
X111124344Y-132018870D01*
X111186311Y-132048178D01*
X111245106Y-132083418D01*
X111300164Y-132124252D01*
X111350954Y-132170286D01*
X111396988Y-132221076D01*
X111437822Y-132276134D01*
X111473062Y-132334929D01*
X111502370Y-132396896D01*
X111525463Y-132461436D01*
X111542119Y-132527929D01*
X111552177Y-132595735D01*
X111555540Y-132664200D01*
X111555540Y-140258800D01*
X111552177Y-140327265D01*
X111542119Y-140395071D01*
X111525463Y-140461564D01*
X111502370Y-140526104D01*
X111473062Y-140588071D01*
X111437822Y-140646866D01*
X111396988Y-140701924D01*
X111350954Y-140752714D01*
X111300164Y-140798748D01*
X111245106Y-140839582D01*
X111186311Y-140874822D01*
X111124344Y-140904130D01*
X111059804Y-140927223D01*
X110993311Y-140943879D01*
X110925505Y-140953937D01*
X110857040Y-140957300D01*
X109460040Y-140957300D01*
X109391575Y-140953937D01*
X109323769Y-140943879D01*
X109257276Y-140927223D01*
X109192736Y-140904130D01*
X109130769Y-140874822D01*
X109071974Y-140839582D01*
X109016916Y-140798748D01*
X108966126Y-140752714D01*
X108920092Y-140701924D01*
X108879258Y-140646866D01*
X108844018Y-140588071D01*
X108814710Y-140526104D01*
X108791617Y-140461564D01*
X108774961Y-140395071D01*
X108764903Y-140327265D01*
X108761540Y-140258800D01*
X108761540Y-132664200D01*
X108764903Y-132595735D01*
X108774961Y-132527929D01*
X108791617Y-132461436D01*
X108814710Y-132396896D01*
X108844018Y-132334929D01*
X108879258Y-132276134D01*
X108920092Y-132221076D01*
X108966126Y-132170286D01*
X109016916Y-132124252D01*
X109071974Y-132083418D01*
X109130769Y-132048178D01*
X109192736Y-132018870D01*
X109257276Y-131995777D01*
X109323769Y-131979121D01*
X109391575Y-131969063D01*
X109460040Y-131965700D01*
X110857040Y-131965700D01*
X110925505Y-131969063D01*
G37*
G04 #@! TD.AperFunction*
G04 #@! TA.AperFunction,ConnectorPad*
G36*
X106965505Y-131969063D02*
G01*
X107033311Y-131979121D01*
X107099804Y-131995777D01*
X107164344Y-132018870D01*
X107226311Y-132048178D01*
X107285106Y-132083418D01*
X107340164Y-132124252D01*
X107390954Y-132170286D01*
X107436988Y-132221076D01*
X107477822Y-132276134D01*
X107513062Y-132334929D01*
X107542370Y-132396896D01*
X107565463Y-132461436D01*
X107582119Y-132527929D01*
X107592177Y-132595735D01*
X107595540Y-132664200D01*
X107595540Y-140258800D01*
X107592177Y-140327265D01*
X107582119Y-140395071D01*
X107565463Y-140461564D01*
X107542370Y-140526104D01*
X107513062Y-140588071D01*
X107477822Y-140646866D01*
X107436988Y-140701924D01*
X107390954Y-140752714D01*
X107340164Y-140798748D01*
X107285106Y-140839582D01*
X107226311Y-140874822D01*
X107164344Y-140904130D01*
X107099804Y-140927223D01*
X107033311Y-140943879D01*
X106965505Y-140953937D01*
X106897040Y-140957300D01*
X105500040Y-140957300D01*
X105431575Y-140953937D01*
X105363769Y-140943879D01*
X105297276Y-140927223D01*
X105232736Y-140904130D01*
X105170769Y-140874822D01*
X105111974Y-140839582D01*
X105056916Y-140798748D01*
X105006126Y-140752714D01*
X104960092Y-140701924D01*
X104919258Y-140646866D01*
X104884018Y-140588071D01*
X104854710Y-140526104D01*
X104831617Y-140461564D01*
X104814961Y-140395071D01*
X104804903Y-140327265D01*
X104801540Y-140258800D01*
X104801540Y-132664200D01*
X104804903Y-132595735D01*
X104814961Y-132527929D01*
X104831617Y-132461436D01*
X104854710Y-132396896D01*
X104884018Y-132334929D01*
X104919258Y-132276134D01*
X104960092Y-132221076D01*
X105006126Y-132170286D01*
X105056916Y-132124252D01*
X105111974Y-132083418D01*
X105170769Y-132048178D01*
X105232736Y-132018870D01*
X105297276Y-131995777D01*
X105363769Y-131979121D01*
X105431575Y-131969063D01*
X105500040Y-131965700D01*
X106897040Y-131965700D01*
X106965505Y-131969063D01*
G37*
G04 #@! TD.AperFunction*
D15*
X102928420Y-109684180D03*
X102928420Y-112184180D03*
X104015540Y-82866860D03*
X104015540Y-85366860D03*
X148149940Y-111683800D03*
X150649940Y-111683800D03*
D21*
X126789180Y-89105740D03*
X126824740Y-77269340D03*
X148205820Y-66861060D03*
X181438540Y-129782580D03*
X191686180Y-107114340D03*
X169550080Y-67058540D03*
X191721740Y-87294720D03*
X148455380Y-94562600D03*
X110158540Y-129856220D03*
X107502960Y-101625400D03*
X148455380Y-107162600D03*
X148455380Y-103562600D03*
X148455380Y-99962600D03*
X164302440Y-130124200D03*
X164449760Y-118424960D03*
X138661140Y-115663980D03*
X152542240Y-130129280D03*
X148455380Y-96362600D03*
X134272020Y-98173540D03*
X150802340Y-125084840D03*
X124957840Y-129882900D03*
X128678940Y-129908300D03*
X132704840Y-129857500D03*
X136591040Y-129882900D03*
X141188440Y-129870200D03*
X138676380Y-117431820D03*
X148455380Y-98162600D03*
X126824740Y-107439460D03*
X155615640Y-130106420D03*
X158142940Y-130106420D03*
X148455380Y-101762600D03*
X148455380Y-105362600D03*
X116349780Y-101429820D03*
X119113300Y-98163380D03*
D22*
X181438540Y-132767060D02*
X181439820Y-132765780D01*
X122608340Y-92900500D02*
X122994420Y-92900500D01*
X122994420Y-92900500D02*
X126789180Y-89105740D01*
X95069660Y-104640380D02*
X95069660Y-107876340D01*
X95069660Y-80317340D02*
X95069660Y-104640380D01*
X95069660Y-78544420D02*
X95069660Y-80317340D01*
X95069660Y-75404980D02*
X95069660Y-78544420D01*
X121363740Y-72255380D02*
X116182140Y-72255380D01*
X121363740Y-72255380D02*
X121196100Y-72255380D01*
X121196100Y-72255380D02*
X116182140Y-77269340D01*
X116182140Y-72255380D02*
X95882460Y-72255380D01*
X95882460Y-72255380D02*
X95069660Y-73068180D01*
X95069660Y-73068180D02*
X95069660Y-75404980D01*
X106764418Y-123893580D02*
X132748660Y-123893580D01*
X132748660Y-123893580D02*
X134241540Y-122400700D01*
X134241540Y-122400700D02*
X134241540Y-119900700D01*
X95069660Y-107876340D02*
X95069660Y-112198822D01*
X95069660Y-112198822D02*
X106764418Y-123893580D01*
D23*
X122481340Y-92773500D02*
X122608340Y-92900500D01*
D22*
X126824740Y-77269340D02*
X126824740Y-77269340D01*
X99392100Y-82866860D02*
X104015540Y-82866860D01*
X95069660Y-78544420D02*
X99392100Y-82866860D01*
X99254940Y-109684180D02*
X102928420Y-109684180D01*
X95069660Y-105498900D02*
X99254940Y-109684180D01*
X95069660Y-104640380D02*
X95069660Y-105498900D01*
X149395180Y-65234820D02*
X148205820Y-66424180D01*
X148205820Y-66424180D02*
X148205820Y-66861060D01*
X193521580Y-66955920D02*
X191800480Y-65234820D01*
X148149940Y-111683800D02*
X145972630Y-109506490D01*
X145972630Y-94244690D02*
X148238840Y-91978480D01*
X145972630Y-109506490D02*
X145972630Y-94244690D01*
X193521580Y-124364500D02*
X193521580Y-119608600D01*
X181438540Y-129782580D02*
X188103500Y-129782580D01*
X190386720Y-126947680D02*
X187297060Y-126947680D01*
X190662560Y-127223520D02*
X190386720Y-126947680D01*
X188103500Y-129782580D02*
X190662560Y-127223520D01*
X190662560Y-127223520D02*
X193521580Y-124364500D01*
X193521580Y-105248460D02*
X193521580Y-105311960D01*
X193521580Y-119608600D02*
X193521580Y-105248460D01*
X193521580Y-105248460D02*
X193521580Y-105278940D01*
X193521580Y-105278940D02*
X191686180Y-107114340D01*
X191686180Y-107114340D02*
X191686180Y-107114340D01*
D23*
X172232320Y-65234820D02*
X171373800Y-65234820D01*
D22*
X191800480Y-65234820D02*
X172232320Y-65234820D01*
X172232320Y-65234820D02*
X149395180Y-65234820D01*
D23*
X171373800Y-65234820D02*
X169550080Y-67058540D01*
X169550080Y-67058540D02*
X169550080Y-67058540D01*
D22*
X193521580Y-85268820D02*
X193521580Y-85494880D01*
X193521580Y-105248460D02*
X193521580Y-85268820D01*
X193521580Y-85268820D02*
X193521580Y-66955920D01*
X193521580Y-85494880D02*
X191721740Y-87294720D01*
X191721740Y-87294720D02*
X191721740Y-87294720D01*
X181438540Y-136461500D02*
X181438540Y-132767060D01*
X181438540Y-129782580D02*
X181438540Y-136461500D01*
X138859260Y-65234820D02*
X149395180Y-65234820D01*
X131814570Y-72279510D02*
X121387870Y-72279510D01*
X138859260Y-65234820D02*
X131814570Y-72279510D01*
X121387870Y-72279510D02*
X121363740Y-72255380D01*
X131814570Y-72279510D02*
X126824740Y-77269340D01*
X189395100Y-131056380D02*
X192610740Y-127840740D01*
X189358540Y-136461500D02*
X189358540Y-132794740D01*
X189395100Y-132758180D02*
X189395100Y-131056380D01*
X189358540Y-132794740D02*
X189395100Y-132758180D01*
X195521580Y-124929900D02*
X195521580Y-119608600D01*
X192610740Y-127840740D02*
X195521580Y-124929900D01*
D23*
X111381540Y-112280700D02*
X111381540Y-93967300D01*
X111381540Y-93967300D02*
X112448340Y-92900500D01*
X175728380Y-108620560D02*
X177175160Y-107173780D01*
X148211338Y-108620560D02*
X175728380Y-108620560D01*
X147305379Y-107714601D02*
X148211338Y-108620560D01*
X147305379Y-95712601D02*
X147305379Y-107714601D01*
X148455380Y-94562600D02*
X147305379Y-95712601D01*
X110158540Y-129856220D02*
X110158540Y-131965700D01*
X110158540Y-131965700D02*
X110158540Y-136461500D01*
X107502960Y-93035120D02*
X107368340Y-92900500D01*
X107502960Y-101625400D02*
X107502960Y-93035120D01*
X176248060Y-129293620D02*
X175343000Y-129293620D01*
X174597060Y-128547680D02*
X174597060Y-126947680D01*
X177478540Y-130524100D02*
X176248060Y-129293620D01*
X175343000Y-129293620D02*
X174597060Y-128547680D01*
X177478540Y-136461500D02*
X177478540Y-130524100D01*
X169517060Y-128547680D02*
X169517060Y-126947680D01*
X170212200Y-129242820D02*
X169517060Y-128547680D01*
X172120560Y-129242820D02*
X170212200Y-129242820D01*
X173518540Y-130640800D02*
X172120560Y-129242820D01*
X173518540Y-136461500D02*
X173518540Y-130640800D01*
X168355159Y-92332661D02*
X168355159Y-90574981D01*
X164680900Y-96006920D02*
X168355159Y-92332661D01*
X169547540Y-89382600D02*
X169547540Y-87392260D01*
X168355159Y-90574981D02*
X169547540Y-89382600D01*
X160073340Y-96006920D02*
X160073338Y-96006918D01*
X164680900Y-96006920D02*
X160073340Y-96006920D01*
X159611062Y-96006918D02*
X148455380Y-107162600D01*
X160073338Y-96006918D02*
X159611062Y-96006918D01*
X165279520Y-129390140D02*
X164437060Y-128547680D01*
X167972740Y-129390140D02*
X165279520Y-129390140D01*
X164437060Y-128547680D02*
X164437060Y-126947680D01*
X169558540Y-130975940D02*
X167972740Y-129390140D01*
X169558540Y-136461500D02*
X169558540Y-130975940D01*
X160915220Y-94806900D02*
X163275159Y-92446961D01*
X163275159Y-92446961D02*
X163275159Y-90430201D01*
X164467540Y-89237820D02*
X164467540Y-87392260D01*
X163275159Y-90430201D02*
X164467540Y-89237820D01*
X157176340Y-94841640D02*
X148455380Y-103562600D01*
X157176340Y-94806900D02*
X157176340Y-94841640D01*
X157176340Y-94806900D02*
X160915220Y-94806900D01*
X164302440Y-130124200D02*
X165598540Y-131420300D01*
X165598540Y-131420300D02*
X165598540Y-136461500D01*
X158195159Y-92369783D02*
X158195159Y-90442901D01*
X159387540Y-89250520D02*
X159387540Y-87392260D01*
X158195159Y-90442901D02*
X159387540Y-89250520D01*
X154736540Y-93681440D02*
X148455380Y-99962600D01*
X155284199Y-93133781D02*
X154736540Y-93681440D01*
X157431161Y-93133781D02*
X155284199Y-93133781D01*
X158195159Y-92369783D02*
X157431161Y-93133781D01*
X163152439Y-130410601D02*
X161638540Y-131924500D01*
X161638540Y-131924500D02*
X161638540Y-136461500D01*
X163152439Y-119722281D02*
X164449760Y-118424960D01*
X163152439Y-119828961D02*
X163152439Y-119722281D01*
X163152439Y-130410601D02*
X163152439Y-119828961D01*
X119692420Y-122029220D02*
X116990060Y-122029220D01*
X116990060Y-122029220D02*
X116461540Y-121500700D01*
X120201550Y-121520090D02*
X119692420Y-122029220D01*
X120201550Y-104125988D02*
X120201550Y-121520090D01*
X147637888Y-76689650D02*
X120201550Y-104125988D01*
X161465830Y-76689650D02*
X147637888Y-76689650D01*
X116461540Y-121500700D02*
X116461540Y-119900700D01*
X164467540Y-73687940D02*
X161465830Y-76689650D01*
X164467540Y-72152260D02*
X164467540Y-73687940D01*
X166977060Y-111707680D02*
X166977060Y-111721698D01*
X121541540Y-103634540D02*
X121541540Y-112280700D01*
X147886420Y-77289660D02*
X121541540Y-103634540D01*
X157678540Y-131548720D02*
X157678540Y-136461500D01*
X160697050Y-119587690D02*
X160697050Y-129599550D01*
X159040179Y-131256421D02*
X157970839Y-131256421D01*
X157970839Y-131256421D02*
X157678540Y-131548720D01*
X166977060Y-113307680D02*
X160697050Y-119587690D01*
X160697050Y-129599550D02*
X159040179Y-131256421D01*
X166977060Y-111707680D02*
X166977060Y-113307680D01*
X163182300Y-77289660D02*
X163497260Y-77289660D01*
X163182300Y-77289660D02*
X147886420Y-77289660D01*
X167007540Y-73779380D02*
X167007540Y-72152260D01*
X163497260Y-77289660D02*
X167007540Y-73779380D01*
X153718540Y-131033800D02*
X153718540Y-136461500D01*
X131866640Y-112115600D02*
X131701540Y-112280700D01*
X131701540Y-113880700D02*
X131701540Y-112280700D01*
X132734821Y-114913981D02*
X131701540Y-113880700D01*
X137911141Y-114913981D02*
X132734821Y-114913981D01*
X138661140Y-115663980D02*
X137911141Y-114913981D01*
X153446760Y-131033800D02*
X152542240Y-130129280D01*
X153718540Y-131033800D02*
X153446760Y-131033800D01*
X159357060Y-112107680D02*
X159357060Y-111707680D01*
X152542240Y-130129280D02*
X152542240Y-120152160D01*
X159357060Y-113337340D02*
X159357060Y-111707680D01*
X152542240Y-120152160D02*
X159357060Y-113337340D01*
X149758540Y-126379900D02*
X149758540Y-131965700D01*
X149758540Y-131965700D02*
X149758540Y-136461500D01*
X149773640Y-136446400D02*
X149758540Y-136461500D01*
X149758540Y-126379900D02*
X149758540Y-126128640D01*
X149758540Y-126128640D02*
X150802340Y-125084840D01*
X150802340Y-125084840D02*
X150802340Y-125084840D01*
X134241540Y-112280700D02*
X134241540Y-98013520D01*
X154244860Y-89054940D02*
X154307540Y-88992260D01*
X154178000Y-89054940D02*
X154244860Y-89054940D01*
X152515149Y-90717791D02*
X154178000Y-89054940D01*
X152515149Y-92302831D02*
X152515149Y-90717791D01*
X154307540Y-88992260D02*
X154307540Y-87392260D01*
X148455380Y-96362600D02*
X152515149Y-92302831D01*
X144871440Y-92108358D02*
X153187539Y-83792259D01*
X179707540Y-87392260D02*
X179707540Y-85862160D01*
X144871440Y-123939300D02*
X144871440Y-92108358D01*
X137878540Y-130932200D02*
X144871440Y-123939300D01*
X137878540Y-136461500D02*
X137878540Y-130932200D01*
X177637639Y-83792259D02*
X179707540Y-85862160D01*
X153187539Y-83792259D02*
X177637639Y-83792259D01*
X143671422Y-91611292D02*
X152690476Y-82592240D01*
X143671420Y-95578436D02*
X143671422Y-91611292D01*
X143671420Y-123442236D02*
X143671420Y-95578436D01*
X133918540Y-136461500D02*
X133918540Y-130853398D01*
X138380757Y-128732899D02*
X143671420Y-123442236D01*
X136039039Y-128732899D02*
X138380757Y-128732899D01*
X133918540Y-130853398D02*
X136039039Y-128732899D01*
X184787540Y-87392260D02*
X184787540Y-85887560D01*
X181492220Y-82592240D02*
X184787540Y-85887560D01*
X152690476Y-82592240D02*
X181029280Y-82592240D01*
X181029280Y-82592240D02*
X181492220Y-82592240D01*
X184787540Y-73752260D02*
X184787540Y-72152260D01*
X142471404Y-91114226D02*
X153281560Y-80304070D01*
X178235730Y-80304070D02*
X184787540Y-73752260D01*
X134180918Y-127532880D02*
X137883693Y-127532879D01*
X142471400Y-95081372D02*
X142471404Y-91114226D01*
X133006299Y-128707499D02*
X134180918Y-127532880D01*
X153281560Y-80304070D02*
X178235730Y-80304070D01*
X129958540Y-136461500D02*
X129958540Y-130901798D01*
X129958540Y-130901798D02*
X132152839Y-128707499D01*
X132152839Y-128707499D02*
X133006299Y-128707499D01*
X142471400Y-122945172D02*
X142471400Y-95081372D01*
X137883693Y-127532879D02*
X142471400Y-122945172D01*
X174291430Y-79104050D02*
X179707540Y-73687940D01*
X152784496Y-79104050D02*
X174291430Y-79104050D01*
X141271386Y-90617160D02*
X152784496Y-79104050D01*
X179707540Y-73687940D02*
X179707540Y-72152260D01*
X141271380Y-94584308D02*
X141271386Y-90617160D01*
X137386627Y-126332861D02*
X141271380Y-122448108D01*
X128152541Y-128758299D02*
X128980399Y-128758299D01*
X130231218Y-127507480D02*
X132509235Y-127507479D01*
X128980399Y-128758299D02*
X130231218Y-127507480D01*
X132509235Y-127507479D02*
X133683852Y-126332862D01*
X125998540Y-130912300D02*
X128152541Y-128758299D01*
X141271380Y-122448108D02*
X141271380Y-94584308D01*
X133683852Y-126332862D02*
X137386627Y-126332861D01*
X125998540Y-136461500D02*
X125998540Y-130912300D01*
X124957840Y-129882900D02*
X124957840Y-129882900D01*
X132260701Y-126907471D02*
X129982685Y-126907471D01*
X133435319Y-125732853D02*
X132260701Y-126907471D01*
X128731867Y-128158289D02*
X126682451Y-128158289D01*
X126682451Y-128158289D02*
X124957840Y-129882900D01*
X129982685Y-126907471D02*
X128731867Y-128158289D01*
X140671370Y-122199576D02*
X137138094Y-125732852D01*
X137138094Y-125732852D02*
X133435319Y-125732853D01*
X140671370Y-94335776D02*
X140671370Y-122199576D01*
X140671377Y-90368627D02*
X152536224Y-78503780D01*
X140671370Y-94335776D02*
X140671377Y-90368627D01*
X177167540Y-72152260D02*
X177167540Y-73685400D01*
X172349160Y-78503780D02*
X177167540Y-73685400D01*
X171846240Y-78503780D02*
X172349160Y-78503780D01*
X152536224Y-78503780D02*
X171846240Y-78503780D01*
X128678940Y-129908300D02*
X128678940Y-129908300D01*
X130479751Y-128107489D02*
X128678940Y-129908300D01*
X133932385Y-126932871D02*
X132757767Y-128107489D01*
X137635159Y-126932871D02*
X133932385Y-126932871D01*
X141871390Y-122696640D02*
X137635159Y-126932871D01*
X141871390Y-94832840D02*
X141871390Y-122696640D01*
X132757767Y-128107489D02*
X130479751Y-128107489D01*
X141871395Y-90865693D02*
X153033028Y-79704060D01*
X141871390Y-94832840D02*
X141871395Y-90865693D01*
X182247540Y-72152260D02*
X182247540Y-73634600D01*
X175601760Y-79704060D02*
X176178080Y-79704060D01*
X153033028Y-79704060D02*
X175601760Y-79704060D01*
X176178080Y-79704060D02*
X182247540Y-73634600D01*
X132704840Y-129857500D02*
X132704840Y-129857500D01*
X187327540Y-73752260D02*
X187327540Y-72152260D01*
X180175720Y-80904080D02*
X187327540Y-73752260D01*
X143071413Y-91362759D02*
X153530092Y-80904080D01*
X143071410Y-123193704D02*
X143071410Y-95329904D01*
X153530092Y-80904080D02*
X180175720Y-80904080D01*
X132704840Y-129857500D02*
X134429451Y-128132889D01*
X143071410Y-95329904D02*
X143071413Y-91362759D01*
X138132225Y-128132889D02*
X143071410Y-123193704D01*
X134429451Y-128132889D02*
X138132225Y-128132889D01*
X136591040Y-129882900D02*
X136591040Y-129882900D01*
X138079298Y-129882900D02*
X136591040Y-129882900D01*
X144271430Y-123690768D02*
X138079298Y-129882900D01*
X144271431Y-91859825D02*
X152939008Y-83192250D01*
X144271430Y-96159890D02*
X144271431Y-91859825D01*
X144271430Y-96159890D02*
X144271430Y-123690768D01*
X144271430Y-95826968D02*
X144271430Y-96159890D01*
X182247540Y-87392260D02*
X182247540Y-85938360D01*
X179501430Y-83192250D02*
X182247540Y-85938360D01*
X178856270Y-83192250D02*
X179501430Y-83192250D01*
X152939008Y-83192250D02*
X178856270Y-83192250D01*
X141188440Y-129870200D02*
X141188440Y-129870200D01*
X141188440Y-129451100D02*
X141188440Y-129870200D01*
X156817060Y-112999138D02*
X156817060Y-111307680D01*
X141188440Y-129870200D02*
X141188440Y-128627758D01*
X156817060Y-112999138D02*
X141188440Y-128627758D01*
X156817060Y-111707680D02*
X156817060Y-112999138D01*
X138676380Y-117431820D02*
X138676380Y-117431820D01*
X129161540Y-112280700D02*
X129161540Y-112680700D01*
X138676380Y-117431820D02*
X132448300Y-117431820D01*
X129161540Y-114145060D02*
X129161540Y-112280700D01*
X132448300Y-117431820D02*
X129161540Y-114145060D01*
X126773940Y-112128300D02*
X126621540Y-112280700D01*
X126824740Y-112077500D02*
X126621540Y-112280700D01*
X126824740Y-107439460D02*
X126824740Y-112077500D01*
X156847540Y-88992260D02*
X156847540Y-87392260D01*
X155507240Y-90332560D02*
X156847540Y-88992260D01*
X153115159Y-91357779D02*
X154140378Y-90332560D01*
X154140378Y-90332560D02*
X155507240Y-90332560D01*
X153115159Y-93502821D02*
X153115159Y-91357779D01*
X148455380Y-98162600D02*
X153115159Y-93502821D01*
X155615640Y-129045760D02*
X155615640Y-130106420D01*
X155617050Y-129044350D02*
X155615640Y-129045760D01*
X155617050Y-119530990D02*
X155617050Y-129044350D01*
X160697050Y-110810620D02*
X160697050Y-114450990D01*
X161835550Y-109672120D02*
X160697050Y-110810620D01*
X171621500Y-109672120D02*
X161835550Y-109672120D01*
X172057060Y-110107680D02*
X171621500Y-109672120D01*
X160697050Y-114450990D02*
X155617050Y-119530990D01*
X172057060Y-111707680D02*
X172057060Y-110107680D01*
X124081540Y-101943082D02*
X124081540Y-112280700D01*
X167936030Y-77903770D02*
X148120852Y-77903770D01*
X148120852Y-77903770D02*
X124081540Y-101943082D01*
X172087540Y-73752260D02*
X167936030Y-77903770D01*
X172087540Y-72152260D02*
X172087540Y-73752260D01*
X158142940Y-125858850D02*
X158142940Y-130106420D01*
X161897060Y-111707680D02*
X161897060Y-115722400D01*
X158142940Y-119476520D02*
X158142940Y-125858850D01*
X161897060Y-115722400D02*
X158142940Y-119476520D01*
X119001540Y-118300700D02*
X119001540Y-119900700D01*
X117801530Y-117100690D02*
X119001540Y-118300700D01*
X161927540Y-73752260D02*
X159590160Y-76089640D01*
X147389356Y-76089640D02*
X117801530Y-105677466D01*
X159590160Y-76089640D02*
X147389356Y-76089640D01*
X117801530Y-105677466D02*
X117801530Y-117100690D01*
X161927540Y-72152260D02*
X161927540Y-73752260D01*
X160735159Y-92509781D02*
X160735159Y-90498781D01*
X159038050Y-94206890D02*
X160735159Y-92509781D01*
X161927540Y-89306400D02*
X161927540Y-87392260D01*
X160735159Y-90498781D02*
X161927540Y-89306400D01*
X156011090Y-94206890D02*
X148455380Y-101762600D01*
X156018670Y-94206890D02*
X156011090Y-94206890D01*
X156018670Y-94206890D02*
X159038050Y-94206890D01*
X152401338Y-101641660D02*
X152401337Y-101641661D01*
X167007540Y-88992260D02*
X167007540Y-87392260D01*
X162778034Y-95406908D02*
X165675161Y-92509781D01*
X165675161Y-90324639D02*
X167007540Y-88992260D01*
X165675161Y-92509781D02*
X165675161Y-90324639D01*
X158411072Y-95406908D02*
X148455380Y-105362600D01*
X158680848Y-95406908D02*
X158411072Y-95406908D01*
X158680848Y-95406908D02*
X162778034Y-95406908D01*
X173627530Y-69552250D02*
X174627540Y-70552260D01*
X174627540Y-70552260D02*
X174627540Y-72152260D01*
X144612930Y-69552250D02*
X173627530Y-69552250D01*
X113921540Y-112280700D02*
X113921540Y-105839260D01*
X139509310Y-74655870D02*
X144612930Y-69552250D01*
X113921540Y-105839260D02*
X128709420Y-91051380D01*
X130124010Y-80251490D02*
X133913690Y-80251490D01*
X128709420Y-81666080D02*
X130124010Y-80251490D01*
X133913690Y-80251490D02*
X144612930Y-69552250D01*
X128709420Y-91051380D02*
X128709420Y-81666080D01*
X113648350Y-78762111D02*
X113642140Y-78755901D01*
X113642140Y-78755901D02*
X113642140Y-77269340D01*
X113921540Y-119900700D02*
X113921540Y-118300700D01*
X113921540Y-118300700D02*
X112721530Y-117100690D01*
X112721530Y-117100690D02*
X112721530Y-94816790D01*
X112721530Y-94816790D02*
X113648350Y-93889970D01*
X113648350Y-93889970D02*
X113648350Y-78762111D01*
X144124885Y-68343211D02*
X133416626Y-79051470D01*
X188861313Y-68343211D02*
X144124885Y-68343211D01*
X190241490Y-69723388D02*
X188861313Y-68343211D01*
X190241490Y-108592050D02*
X190241490Y-69723388D01*
X189019180Y-109814360D02*
X190241490Y-108592050D01*
X174890380Y-109814360D02*
X189019180Y-109814360D01*
X174597060Y-110107680D02*
X174890380Y-109814360D01*
X174597060Y-111707680D02*
X174597060Y-110107680D01*
X124206970Y-79044800D02*
X124358400Y-79044800D01*
X118868330Y-84383440D02*
X124206970Y-79044800D01*
X116349780Y-99224898D02*
X118868330Y-96706348D01*
X118868330Y-96706348D02*
X118868330Y-84383440D01*
X116349780Y-101429820D02*
X116349780Y-99224898D01*
X133416626Y-79051470D02*
X124358400Y-79044800D01*
X119113300Y-98163380D02*
X119113300Y-98163380D01*
X174693580Y-90751660D02*
X174685910Y-90751660D01*
X188386720Y-90147140D02*
X176421800Y-90147140D01*
X126140290Y-79651480D02*
X133665158Y-79651480D01*
X189641480Y-69971920D02*
X189641480Y-88892380D01*
X173885082Y-68943220D02*
X188612780Y-68943220D01*
X188612780Y-68943220D02*
X189641480Y-69971920D01*
X173876062Y-68952240D02*
X173885082Y-68943220D01*
X174635160Y-90802410D02*
X174635160Y-91933780D01*
X176421800Y-90147140D02*
X176411640Y-90157300D01*
X133665158Y-79651480D02*
X144364398Y-68952240D01*
X176411640Y-90157300D02*
X175287940Y-90157300D01*
X121268350Y-84523420D02*
X126140290Y-79651480D01*
X189641480Y-88892380D02*
X188386720Y-90147140D01*
X174685910Y-90751660D02*
X174635160Y-90802410D01*
X121268350Y-96008330D02*
X121268350Y-84523420D01*
X175287940Y-90157300D02*
X174693580Y-90751660D01*
X144364398Y-68952240D02*
X173876062Y-68952240D01*
X119113300Y-98163380D02*
X121268350Y-96008330D01*
X155954280Y-74645520D02*
X156847540Y-73752260D01*
X156847540Y-73752260D02*
X156847540Y-72152260D01*
X143644620Y-74645520D02*
X155954280Y-74645520D01*
M02*
